<?xml version="1.0" encoding="utf-8" standalone="no"?>
<!DOCTYPE svg PUBLIC "-//W3C//DTD SVG 1.1//EN"
  "http://www.w3.org/Graphics/SVG/1.1/DTD/svg11.dtd">
<!-- Created with matplotlib (https://matplotlib.org/) -->
<svg height="108pt" version="1.1" viewBox="0 0 237.6 108" width="237.6pt" xmlns="http://www.w3.org/2000/svg" xmlns:xlink="http://www.w3.org/1999/xlink">
 <metadata>
  <rdf:RDF xmlns:cc="http://creativecommons.org/ns#" xmlns:dc="http://purl.org/dc/elements/1.1/" xmlns:rdf="http://www.w3.org/1999/02/22-rdf-syntax-ns#">
   <cc:Work>
    <dc:type rdf:resource="http://purl.org/dc/dcmitype/StillImage"/>
    <dc:date>2020-07-27T15:31:12.330224</dc:date>
    <dc:format>image/svg+xml</dc:format>
    <dc:creator>
     <cc:Agent>
      <dc:title>Matplotlib v3.3.0, https://matplotlib.org/</dc:title>
     </cc:Agent>
    </dc:creator>
   </cc:Work>
  </rdf:RDF>
 </metadata>
 <defs>
  <style type="text/css">*{stroke-linecap:butt;stroke-linejoin:round;}</style>
 </defs>
 <g id="figure_1">
  <g id="patch_1">
   <path d="M 0 108 
L 237.6 108 
L 237.6 0 
L 0 0 
z
" style="fill:none;"/>
  </g>
  <g id="axes_1">
   <g id="patch_2">
    <path d="M 29.7 94.5 
L 213.84 94.5 
L 213.84 12.96 
L 29.7 12.96 
z
" style="fill:#ffffff;"/>
   </g>
   <g id="matplotlib.axis_1">
    <g id="xtick_1">
     <g id="line2d_1">
      <defs>
       <path d="M 0 0 
L 0 1 
" id="m6e86d61426" style="stroke:#000000;stroke-width:0.5;"/>
      </defs>
      <g>
       <use style="stroke:#000000;stroke-width:0.5;" x="41.20875" xlink:href="#m6e86d61426" y="94.5"/>
      </g>
     </g>
     <g id="text_1">
      <!-- 2.4 -->
      <g transform="translate(37.03875 103.294687)scale(0.06 -0.06)">
       <defs>
        <path d="M 50.34375 8.453125 
L 50.34375 0 
L 3.03125 0 
Q 2.9375 3.171875 4.046875 6.109375 
Q 5.859375 10.9375 9.828125 15.625 
Q 13.8125 20.3125 21.34375 26.46875 
Q 33.015625 36.03125 37.109375 41.625 
Q 41.21875 47.21875 41.21875 52.203125 
Q 41.21875 57.421875 37.46875 61 
Q 33.734375 64.59375 27.734375 64.59375 
Q 21.390625 64.59375 17.578125 60.78125 
Q 13.765625 56.984375 13.71875 50.25 
L 4.6875 51.171875 
Q 5.609375 61.28125 11.65625 66.578125 
Q 17.71875 71.875 27.9375 71.875 
Q 38.234375 71.875 44.234375 66.15625 
Q 50.25 60.453125 50.25 52 
Q 50.25 47.703125 48.484375 43.546875 
Q 46.734375 39.40625 42.65625 34.8125 
Q 38.578125 30.21875 29.109375 22.21875 
Q 21.1875 15.578125 18.9375 13.203125 
Q 16.703125 10.84375 15.234375 8.453125 
z
" id="ArialMT-50"/>
        <path d="M 9.078125 0 
L 9.078125 10.015625 
L 19.09375 10.015625 
L 19.09375 0 
z
" id="ArialMT-46"/>
        <path d="M 32.328125 0 
L 32.328125 17.140625 
L 1.265625 17.140625 
L 1.265625 25.203125 
L 33.9375 71.578125 
L 41.109375 71.578125 
L 41.109375 25.203125 
L 50.78125 25.203125 
L 50.78125 17.140625 
L 41.109375 17.140625 
L 41.109375 0 
z
M 32.328125 25.203125 
L 32.328125 57.46875 
L 9.90625 25.203125 
z
" id="ArialMT-52"/>
       </defs>
       <use xlink:href="#ArialMT-50"/>
       <use x="55.615234" xlink:href="#ArialMT-46"/>
       <use x="83.398438" xlink:href="#ArialMT-52"/>
      </g>
     </g>
    </g>
    <g id="xtick_2">
     <g id="line2d_2">
      <g>
       <use style="stroke:#000000;stroke-width:0.5;" x="64.22625" xlink:href="#m6e86d61426" y="94.5"/>
      </g>
     </g>
     <g id="text_2">
      <!-- 2.5 -->
      <g transform="translate(60.05625 103.294687)scale(0.06 -0.06)">
       <defs>
        <path d="M 4.15625 18.75 
L 13.375 19.53125 
Q 14.40625 12.796875 18.140625 9.390625 
Q 21.875 6 27.15625 6 
Q 33.5 6 37.890625 10.78125 
Q 42.28125 15.578125 42.28125 23.484375 
Q 42.28125 31 38.0625 35.34375 
Q 33.84375 39.703125 27 39.703125 
Q 22.75 39.703125 19.328125 37.765625 
Q 15.921875 35.84375 13.96875 32.765625 
L 5.71875 33.84375 
L 12.640625 70.609375 
L 48.25 70.609375 
L 48.25 62.203125 
L 19.671875 62.203125 
L 15.828125 42.96875 
Q 22.265625 47.46875 29.34375 47.46875 
Q 38.71875 47.46875 45.15625 40.96875 
Q 51.609375 34.46875 51.609375 24.265625 
Q 51.609375 14.546875 45.953125 7.46875 
Q 39.0625 -1.21875 27.15625 -1.21875 
Q 17.390625 -1.21875 11.203125 4.25 
Q 5.03125 9.71875 4.15625 18.75 
z
" id="ArialMT-53"/>
       </defs>
       <use xlink:href="#ArialMT-50"/>
       <use x="55.615234" xlink:href="#ArialMT-46"/>
       <use x="83.398438" xlink:href="#ArialMT-53"/>
      </g>
     </g>
    </g>
    <g id="xtick_3">
     <g id="line2d_3">
      <g>
       <use style="stroke:#000000;stroke-width:0.5;" x="87.24375" xlink:href="#m6e86d61426" y="94.5"/>
      </g>
     </g>
     <g id="text_3">
      <!-- 2.6 -->
      <g transform="translate(83.07375 103.294687)scale(0.06 -0.06)">
       <defs>
        <path d="M 49.75 54.046875 
L 41.015625 53.375 
Q 39.84375 58.546875 37.703125 60.890625 
Q 34.125 64.65625 28.90625 64.65625 
Q 24.703125 64.65625 21.53125 62.3125 
Q 17.390625 59.28125 14.984375 53.46875 
Q 12.59375 47.65625 12.5 36.921875 
Q 15.671875 41.75 20.265625 44.09375 
Q 24.859375 46.4375 29.890625 46.4375 
Q 38.671875 46.4375 44.84375 39.96875 
Q 51.03125 33.5 51.03125 23.25 
Q 51.03125 16.5 48.125 10.71875 
Q 45.21875 4.9375 40.140625 1.859375 
Q 35.0625 -1.21875 28.609375 -1.21875 
Q 17.625 -1.21875 10.6875 6.859375 
Q 3.765625 14.9375 3.765625 33.5 
Q 3.765625 54.25 11.421875 63.671875 
Q 18.109375 71.875 29.4375 71.875 
Q 37.890625 71.875 43.28125 67.140625 
Q 48.6875 62.40625 49.75 54.046875 
z
M 13.875 23.1875 
Q 13.875 18.65625 15.796875 14.5 
Q 17.71875 10.359375 21.1875 8.171875 
Q 24.65625 6 28.46875 6 
Q 34.03125 6 38.03125 10.484375 
Q 42.046875 14.984375 42.046875 22.703125 
Q 42.046875 30.125 38.078125 34.390625 
Q 34.125 38.671875 28.125 38.671875 
Q 22.171875 38.671875 18.015625 34.390625 
Q 13.875 30.125 13.875 23.1875 
z
" id="ArialMT-54"/>
       </defs>
       <use xlink:href="#ArialMT-50"/>
       <use x="55.615234" xlink:href="#ArialMT-46"/>
       <use x="83.398438" xlink:href="#ArialMT-54"/>
      </g>
     </g>
    </g>
    <g id="xtick_4">
     <g id="line2d_4">
      <g>
       <use style="stroke:#000000;stroke-width:0.5;" x="110.26125" xlink:href="#m6e86d61426" y="94.5"/>
      </g>
     </g>
     <g id="text_4">
      <!-- 2.7 -->
      <g transform="translate(106.09125 103.294687)scale(0.06 -0.06)">
       <defs>
        <path d="M 4.734375 62.203125 
L 4.734375 70.65625 
L 51.078125 70.65625 
L 51.078125 63.8125 
Q 44.234375 56.546875 37.515625 44.484375 
Q 30.8125 32.421875 27.15625 19.671875 
Q 24.515625 10.6875 23.78125 0 
L 14.75 0 
Q 14.890625 8.453125 18.0625 20.40625 
Q 21.234375 32.375 27.171875 43.484375 
Q 33.109375 54.59375 39.796875 62.203125 
z
" id="ArialMT-55"/>
       </defs>
       <use xlink:href="#ArialMT-50"/>
       <use x="55.615234" xlink:href="#ArialMT-46"/>
       <use x="83.398438" xlink:href="#ArialMT-55"/>
      </g>
     </g>
    </g>
    <g id="xtick_5">
     <g id="line2d_5">
      <g>
       <use style="stroke:#000000;stroke-width:0.5;" x="133.27875" xlink:href="#m6e86d61426" y="94.5"/>
      </g>
     </g>
     <g id="text_5">
      <!-- 2.8 -->
      <g transform="translate(129.10875 103.294687)scale(0.06 -0.06)">
       <defs>
        <path d="M 17.671875 38.8125 
Q 12.203125 40.828125 9.5625 44.53125 
Q 6.9375 48.25 6.9375 53.421875 
Q 6.9375 61.234375 12.546875 66.546875 
Q 18.171875 71.875 27.484375 71.875 
Q 36.859375 71.875 42.578125 66.421875 
Q 48.296875 60.984375 48.296875 53.171875 
Q 48.296875 48.1875 45.671875 44.5 
Q 43.0625 40.828125 37.75 38.8125 
Q 44.34375 36.671875 47.78125 31.875 
Q 51.21875 27.09375 51.21875 20.453125 
Q 51.21875 11.28125 44.71875 5.03125 
Q 38.234375 -1.21875 27.640625 -1.21875 
Q 17.046875 -1.21875 10.546875 5.046875 
Q 4.046875 11.328125 4.046875 20.703125 
Q 4.046875 27.6875 7.59375 32.390625 
Q 11.140625 37.109375 17.671875 38.8125 
z
M 15.921875 53.71875 
Q 15.921875 48.640625 19.1875 45.40625 
Q 22.46875 42.1875 27.6875 42.1875 
Q 32.765625 42.1875 36.015625 45.375 
Q 39.265625 48.578125 39.265625 53.21875 
Q 39.265625 58.0625 35.90625 61.359375 
Q 32.5625 64.65625 27.59375 64.65625 
Q 22.5625 64.65625 19.234375 61.421875 
Q 15.921875 58.203125 15.921875 53.71875 
z
M 13.09375 20.65625 
Q 13.09375 16.890625 14.875 13.375 
Q 16.65625 9.859375 20.171875 7.921875 
Q 23.6875 6 27.734375 6 
Q 34.03125 6 38.125 10.046875 
Q 42.234375 14.109375 42.234375 20.359375 
Q 42.234375 26.703125 38.015625 30.859375 
Q 33.796875 35.015625 27.4375 35.015625 
Q 21.234375 35.015625 17.15625 30.90625 
Q 13.09375 26.8125 13.09375 20.65625 
z
" id="ArialMT-56"/>
       </defs>
       <use xlink:href="#ArialMT-50"/>
       <use x="55.615234" xlink:href="#ArialMT-46"/>
       <use x="83.398438" xlink:href="#ArialMT-56"/>
      </g>
     </g>
    </g>
    <g id="xtick_6">
     <g id="line2d_6">
      <g>
       <use style="stroke:#000000;stroke-width:0.5;" x="156.29625" xlink:href="#m6e86d61426" y="94.5"/>
      </g>
     </g>
     <g id="text_6">
      <!-- 2.9 -->
      <g transform="translate(152.12625 103.294687)scale(0.06 -0.06)">
       <defs>
        <path d="M 5.46875 16.546875 
L 13.921875 17.328125 
Q 14.984375 11.375 18.015625 8.6875 
Q 21.046875 6 25.78125 6 
Q 29.828125 6 32.875 7.859375 
Q 35.9375 9.71875 37.890625 12.8125 
Q 39.84375 15.921875 41.15625 21.1875 
Q 42.484375 26.46875 42.484375 31.9375 
Q 42.484375 32.515625 42.4375 33.6875 
Q 39.796875 29.5 35.234375 26.875 
Q 30.671875 24.265625 25.34375 24.265625 
Q 16.453125 24.265625 10.296875 30.703125 
Q 4.15625 37.15625 4.15625 47.703125 
Q 4.15625 58.59375 10.578125 65.234375 
Q 17 71.875 26.65625 71.875 
Q 33.640625 71.875 39.421875 68.109375 
Q 45.21875 64.359375 48.21875 57.390625 
Q 51.21875 50.4375 51.21875 37.25 
Q 51.21875 23.53125 48.234375 15.40625 
Q 45.265625 7.28125 39.375 3.03125 
Q 33.5 -1.21875 25.59375 -1.21875 
Q 17.1875 -1.21875 11.859375 3.4375 
Q 6.546875 8.109375 5.46875 16.546875 
z
M 41.453125 48.140625 
Q 41.453125 55.71875 37.421875 60.15625 
Q 33.40625 64.59375 27.734375 64.59375 
Q 21.875 64.59375 17.53125 59.8125 
Q 13.1875 55.03125 13.1875 47.40625 
Q 13.1875 40.578125 17.3125 36.296875 
Q 21.4375 32.03125 27.484375 32.03125 
Q 33.59375 32.03125 37.515625 36.296875 
Q 41.453125 40.578125 41.453125 48.140625 
z
" id="ArialMT-57"/>
       </defs>
       <use xlink:href="#ArialMT-50"/>
       <use x="55.615234" xlink:href="#ArialMT-46"/>
       <use x="83.398438" xlink:href="#ArialMT-57"/>
      </g>
     </g>
    </g>
    <g id="xtick_7">
     <g id="line2d_7">
      <g>
       <use style="stroke:#000000;stroke-width:0.5;" x="179.31375" xlink:href="#m6e86d61426" y="94.5"/>
      </g>
     </g>
     <g id="text_7">
      <!-- 3.0 -->
      <g transform="translate(175.14375 103.294687)scale(0.06 -0.06)">
       <defs>
        <path d="M 4.203125 18.890625 
L 12.984375 20.0625 
Q 14.5 12.59375 18.140625 9.296875 
Q 21.78125 6 27 6 
Q 33.203125 6 37.46875 10.296875 
Q 41.75 14.59375 41.75 20.953125 
Q 41.75 27 37.796875 30.921875 
Q 33.84375 34.859375 27.734375 34.859375 
Q 25.25 34.859375 21.53125 33.890625 
L 22.515625 41.609375 
Q 23.390625 41.5 23.921875 41.5 
Q 29.546875 41.5 34.03125 44.421875 
Q 38.53125 47.359375 38.53125 53.46875 
Q 38.53125 58.296875 35.25 61.46875 
Q 31.984375 64.65625 26.8125 64.65625 
Q 21.6875 64.65625 18.265625 61.421875 
Q 14.84375 58.203125 13.875 51.765625 
L 5.078125 53.328125 
Q 6.6875 62.15625 12.390625 67.015625 
Q 18.109375 71.875 26.609375 71.875 
Q 32.46875 71.875 37.390625 69.359375 
Q 42.328125 66.84375 44.9375 62.5 
Q 47.5625 58.15625 47.5625 53.265625 
Q 47.5625 48.640625 45.0625 44.828125 
Q 42.578125 41.015625 37.703125 38.765625 
Q 44.046875 37.3125 47.5625 32.6875 
Q 51.078125 28.078125 51.078125 21.140625 
Q 51.078125 11.765625 44.234375 5.25 
Q 37.40625 -1.265625 26.953125 -1.265625 
Q 17.53125 -1.265625 11.296875 4.34375 
Q 5.078125 9.96875 4.203125 18.890625 
z
" id="ArialMT-51"/>
        <path d="M 4.15625 35.296875 
Q 4.15625 48 6.765625 55.734375 
Q 9.375 63.484375 14.515625 67.671875 
Q 19.671875 71.875 27.484375 71.875 
Q 33.25 71.875 37.59375 69.546875 
Q 41.9375 67.234375 44.765625 62.859375 
Q 47.609375 58.5 49.21875 52.21875 
Q 50.828125 45.953125 50.828125 35.296875 
Q 50.828125 22.703125 48.234375 14.96875 
Q 45.65625 7.234375 40.5 3 
Q 35.359375 -1.21875 27.484375 -1.21875 
Q 17.140625 -1.21875 11.234375 6.203125 
Q 4.15625 15.140625 4.15625 35.296875 
z
M 13.1875 35.296875 
Q 13.1875 17.671875 17.3125 11.828125 
Q 21.4375 6 27.484375 6 
Q 33.546875 6 37.671875 11.859375 
Q 41.796875 17.71875 41.796875 35.296875 
Q 41.796875 52.984375 37.671875 58.78125 
Q 33.546875 64.59375 27.390625 64.59375 
Q 21.34375 64.59375 17.71875 59.46875 
Q 13.1875 52.9375 13.1875 35.296875 
z
" id="ArialMT-48"/>
       </defs>
       <use xlink:href="#ArialMT-51"/>
       <use x="55.615234" xlink:href="#ArialMT-46"/>
       <use x="83.398438" xlink:href="#ArialMT-48"/>
      </g>
     </g>
    </g>
    <g id="xtick_8">
     <g id="line2d_8">
      <g>
       <use style="stroke:#000000;stroke-width:0.5;" x="202.33125" xlink:href="#m6e86d61426" y="94.5"/>
      </g>
     </g>
     <g id="text_8">
      <!-- 3.1 -->
      <g transform="translate(198.16125 103.294687)scale(0.06 -0.06)">
       <defs>
        <path d="M 37.25 0 
L 28.46875 0 
L 28.46875 56 
Q 25.296875 52.984375 20.140625 49.953125 
Q 14.984375 46.921875 10.890625 45.40625 
L 10.890625 53.90625 
Q 18.265625 57.375 23.78125 62.296875 
Q 29.296875 67.234375 31.59375 71.875 
L 37.25 71.875 
z
" id="ArialMT-49"/>
       </defs>
       <use xlink:href="#ArialMT-51"/>
       <use x="55.615234" xlink:href="#ArialMT-46"/>
       <use x="83.398438" xlink:href="#ArialMT-49"/>
      </g>
     </g>
    </g>
   </g>
   <g id="matplotlib.axis_2">
    <g id="ytick_1">
     <g id="line2d_9">
      <defs>
       <path d="M 0 0 
L -1 0 
" id="mcba8221234" style="stroke:#000000;stroke-width:0.5;"/>
      </defs>
      <g>
       <use style="stroke:#000000;stroke-width:0.5;" x="29.7" xlink:href="#mcba8221234" y="87.705"/>
      </g>
     </g>
     <g id="text_9">
      <!-- 2.2 -->
      <g transform="translate(16.86 89.852344)scale(0.06 -0.06)">
       <use xlink:href="#ArialMT-50"/>
       <use x="55.615234" xlink:href="#ArialMT-46"/>
       <use x="83.398438" xlink:href="#ArialMT-50"/>
      </g>
     </g>
    </g>
    <g id="ytick_2">
     <g id="line2d_10">
      <g>
       <use style="stroke:#000000;stroke-width:0.5;" x="29.7" xlink:href="#mcba8221234" y="60.525"/>
      </g>
     </g>
     <g id="text_10">
      <!-- 2.4 -->
      <g transform="translate(16.86 62.672344)scale(0.06 -0.06)">
       <use xlink:href="#ArialMT-50"/>
       <use x="55.615234" xlink:href="#ArialMT-46"/>
       <use x="83.398438" xlink:href="#ArialMT-52"/>
      </g>
     </g>
    </g>
    <g id="ytick_3">
     <g id="line2d_11">
      <g>
       <use style="stroke:#000000;stroke-width:0.5;" x="29.7" xlink:href="#mcba8221234" y="33.345"/>
      </g>
     </g>
     <g id="text_11">
      <!-- 2.6 -->
      <g transform="translate(16.86 35.492344)scale(0.06 -0.06)">
       <use xlink:href="#ArialMT-50"/>
       <use x="55.615234" xlink:href="#ArialMT-46"/>
       <use x="83.398438" xlink:href="#ArialMT-54"/>
      </g>
     </g>
    </g>
   </g>
   <g id="LineCollection_1"/>
   <g id="LineCollection_2">
    <path clip-path="url(#p3c3def9374)" d="M 46.963125 65.925486 
L 49.840313 66.363408 
L 52.7175 65.955494 
L 53.599441 65.62125 
L 55.594688 65.052212 
L 57.782002 63.9225 
L 58.471875 63.592748 
L 60.678601 62.22375 
L 61.349063 61.763007 
L 63.107534 60.525 
L 64.22625 59.528241 
L 65.153087 58.82625 
L 66.914082 57.1275 
L 67.103438 56.933472 
L 68.978288 55.42875 
L 69.980625 54.292751 
L 70.675068 53.73 
L 72.378278 52.03125 
L 72.857813 51.421093 
L 74.114344 50.3325 
L 75.46926 48.63375 
L 75.735 48.251705 
L 77.158079 46.935 
L 78.360691 45.23625 
L 78.612188 44.830569 
L 79.923321 43.5375 
L 81.073888 41.83875 
L 81.489375 41.066352 
L 82.354765 40.14 
L 83.505043 38.44125 
L 84.244122 36.7425 
L 84.366563 36.374295 
L 85.19763 35.04375 
L 85.744554 33.345 
L 85.829256 31.64625 
L 85.308271 29.9475 
L 84.366563 28.86785 
L 83.60984 28.24875 
L 81.489375 27.2762 
L 78.612188 27.043039 
L 75.735 27.505771 
L 73.916417 28.24875 
L 72.857813 28.594088 
L 70.351676 29.9475 
L 69.980625 30.136819 
L 67.597653 31.64625 
L 67.103438 31.996088 
L 65.20787 33.345 
L 64.22625 34.231812 
L 63.158908 35.04375 
L 61.460595 36.7425 
L 61.349063 36.857395 
L 59.3863 38.44125 
L 58.471875 39.496795 
L 57.687252 40.14 
L 56.044642 41.83875 
L 55.594688 42.422624 
L 54.320497 43.5375 
L 52.98493 45.23625 
L 52.7175 45.626064 
L 51.312368 46.935 
L 50.112498 48.63375 
L 49.840313 49.078623 
L 48.577377 50.3325 
L 47.421607 52.03125 
L 46.963125 52.900767 
L 46.196996 53.73 
L 45.040674 55.42875 
L 44.312244 57.1275 
L 44.085938 57.878499 
L 43.534424 58.82625 
L 43.074824 60.525 
L 43.18161 62.22375 
L 44.085938 63.918352 
L 44.088092 63.9225 
L 46.310246 65.62125 
L 46.963125 65.925486 
" style="fill:none;stroke:#000000;stroke-opacity:0.75;stroke-width:0.65;"/>
   </g>
   <g id="LineCollection_3">
    <path clip-path="url(#p3c3def9374)" d="M 49.840313 61.677168 
L 52.7175 62.115148 
L 55.594688 61.397274 
L 57.297114 60.525 
L 58.471875 59.955344 
L 60.160797 58.82625 
L 61.349063 57.995954 
L 62.483775 57.1275 
L 64.22625 55.617611 
L 64.459089 55.42875 
L 66.425049 53.73 
L 67.103438 53.077221 
L 68.309245 52.03125 
L 69.869285 50.3325 
L 69.980625 50.208608 
L 71.619842 48.63375 
L 72.857813 47.050093 
L 72.975258 46.935 
L 74.538345 45.23625 
L 75.702523 43.5375 
L 75.735 43.487954 
L 77.108971 41.83875 
L 78.146813 40.14 
L 78.612188 39.242267 
L 79.171238 38.44125 
L 79.983822 36.7425 
L 80.401954 35.04375 
L 80.256829 33.345 
L 78.740201 31.64625 
L 78.612188 31.575696 
L 75.735 31.407337 
L 75.031081 31.64625 
L 72.857813 32.254182 
L 70.802861 33.345 
L 69.980625 33.759902 
L 68.09411 35.04375 
L 67.103438 35.74842 
L 65.813616 36.7425 
L 64.22625 38.126767 
L 63.840333 38.44125 
L 61.937076 40.14 
L 61.349063 40.718085 
L 60.077234 41.83875 
L 58.557903 43.5375 
L 58.471875 43.635177 
L 56.826838 45.23625 
L 55.594688 46.838129 
L 55.496769 46.935 
L 53.946407 48.63375 
L 52.793139 50.3325 
L 52.7175 50.450082 
L 51.417195 52.03125 
L 50.391933 53.73 
L 49.840313 54.831535 
L 49.43424 55.42875 
L 48.660864 57.1275 
L 48.334536 58.82625 
L 48.69221 60.525 
L 49.840313 61.677168 
" style="fill:none;stroke:#000000;stroke-opacity:0.75;stroke-width:0.65;"/>
   </g>
   <g id="LineCollection_4">
    <path clip-path="url(#p3c3def9374)" d="M 52.7175 58.936554 
L 55.594688 58.942316 
L 55.832441 58.82625 
L 58.471875 57.662684 
L 59.257624 57.1275 
L 61.349063 55.742591 
L 61.746878 55.42875 
L 63.830981 53.73 
L 64.22625 53.424256 
L 65.822271 52.03125 
L 67.103438 50.824103 
L 67.635343 50.3325 
L 69.257057 48.63375 
L 69.980625 47.824139 
L 70.82727 46.935 
L 72.188172 45.23625 
L 72.857813 44.337686 
L 73.521935 43.5375 
L 74.660833 41.83875 
L 75.667153 40.14 
L 75.735 39.995285 
L 76.494163 38.44125 
L 76.87439 36.7425 
L 76.406955 35.04375 
L 75.735 34.514587 
L 72.857813 34.678981 
L 72.137567 35.04375 
L 69.980625 36.029832 
L 68.951609 36.7425 
L 67.103438 37.982633 
L 66.525983 38.44125 
L 64.479232 40.14 
L 64.22625 40.340056 
L 62.542047 41.83875 
L 61.349063 42.990612 
L 60.767765 43.5375 
L 59.182475 45.23625 
L 58.471875 46.048137 
L 57.639482 46.935 
L 56.301765 48.63375 
L 55.594688 49.603426 
L 54.998851 50.3325 
L 53.883684 52.03125 
L 52.921717 53.73 
L 52.7175 54.189106 
L 52.139981 55.42875 
L 51.859904 57.1275 
L 52.571733 58.82625 
L 52.7175 58.936554 
" style="fill:none;stroke:#000000;stroke-opacity:0.75;stroke-width:0.65;"/>
   </g>
   <g id="LineCollection_5">
    <path clip-path="url(#p3c3def9374)" d="M 55.594688 55.581038 
L 58.323315 55.42875 
L 58.471875 55.423162 
L 61.349063 53.737532 
L 61.358423 53.73 
L 63.450147 52.03125 
L 64.22625 51.484913 
L 65.46127 50.3325 
L 67.103438 48.814505 
L 67.282569 48.63375 
L 68.756336 46.935 
L 69.980625 45.534898 
L 70.230187 45.23625 
L 71.370885 43.5375 
L 72.411727 41.83875 
L 72.857813 40.981361 
L 73.225815 40.14 
L 73.30005 38.44125 
L 72.857813 37.838211 
L 69.980625 38.236954 
L 69.679633 38.44125 
L 67.103438 39.975932 
L 66.902238 40.14 
L 64.838383 41.83875 
L 64.22625 42.283496 
L 62.918329 43.5375 
L 61.349063 45.027235 
L 61.146036 45.23625 
L 59.708974 46.935 
L 58.471875 48.387168 
L 58.269802 48.63375 
L 57.170531 50.3325 
L 56.212271 52.03125 
L 55.594688 53.287986 
L 55.41133 53.73 
L 55.477167 55.42875 
L 55.594688 55.581038 
" style="fill:none;stroke:#000000;stroke-opacity:0.75;stroke-width:0.65;"/>
   </g>
   <g id="LineCollection_6">
    <path clip-path="url(#p3c3def9374)" d="M 61.349063 50.996196 
L 62.167185 50.3325 
L 64.22625 49.149127 
L 64.714779 48.63375 
L 66.192154 46.935 
L 67.103438 46.139176 
L 67.681272 45.23625 
L 68.215486 43.5375 
L 67.103438 42.633948 
L 66.057447 43.5375 
L 64.22625 44.641291 
L 63.684593 45.23625 
L 62.276552 46.935 
L 61.349063 47.797609 
L 60.841399 48.63375 
L 60.488036 50.3325 
L 61.349063 50.996196 
" style="fill:none;stroke:#000000;stroke-opacity:0.75;stroke-width:0.65;"/>
   </g>
   <g id="LineCollection_7"/>
   <g id="line2d_12">
    <defs>
     <path d="M 0 -2.5 
L -2.5 2.5 
L 2.5 2.5 
z
" id="m2343a2fba9" style="stroke:#000000;stroke-linejoin:miter;stroke-opacity:0.75;stroke-width:0.35;"/>
    </defs>
    <g clip-path="url(#p3c3def9374)">
     <use style="fill:#6699cc;fill-opacity:0.75;stroke:#000000;stroke-linejoin:miter;stroke-opacity:0.75;stroke-width:0.35;" x="172.4085" xlink:href="#m2343a2fba9" y="22.473"/>
     <use style="fill:#6699cc;fill-opacity:0.75;stroke:#000000;stroke-linejoin:miter;stroke-opacity:0.75;stroke-width:0.35;" x="161.075412" xlink:href="#m2343a2fba9" y="23.655677"/>
     <use style="fill:#6699cc;fill-opacity:0.75;stroke:#000000;stroke-linejoin:miter;stroke-opacity:0.75;stroke-width:0.35;" x="161.075412" xlink:href="#m2343a2fba9" y="23.655677"/>
     <use style="fill:#6699cc;fill-opacity:0.75;stroke:#000000;stroke-linejoin:miter;stroke-opacity:0.75;stroke-width:0.35;" x="149.677045" xlink:href="#m2343a2fba9" y="24.594531"/>
     <use style="fill:#6699cc;fill-opacity:0.75;stroke:#000000;stroke-linejoin:miter;stroke-opacity:0.75;stroke-width:0.35;" x="149.677045" xlink:href="#m2343a2fba9" y="24.594531"/>
     <use style="fill:#6699cc;fill-opacity:0.75;stroke:#000000;stroke-linejoin:miter;stroke-opacity:0.75;stroke-width:0.35;" x="141.450395" xlink:href="#m2343a2fba9" y="29.346352"/>
     <use style="fill:#6699cc;fill-opacity:0.75;stroke:#000000;stroke-linejoin:miter;stroke-opacity:0.75;stroke-width:0.35;" x="141.450395" xlink:href="#m2343a2fba9" y="29.346352"/>
     <use style="fill:#6699cc;fill-opacity:0.75;stroke:#000000;stroke-linejoin:miter;stroke-opacity:0.75;stroke-width:0.35;" x="141.450395" xlink:href="#m2343a2fba9" y="29.346352"/>
     <use style="fill:#6699cc;fill-opacity:0.75;stroke:#000000;stroke-linejoin:miter;stroke-opacity:0.75;stroke-width:0.35;" x="146.552943" xlink:href="#m2343a2fba9" y="23.255706"/>
     <use style="fill:#6699cc;fill-opacity:0.75;stroke:#000000;stroke-linejoin:miter;stroke-opacity:0.75;stroke-width:0.35;" x="139.386058" xlink:href="#m2343a2fba9" y="17.939067"/>
     <use style="fill:#6699cc;fill-opacity:0.75;stroke:#000000;stroke-linejoin:miter;stroke-opacity:0.75;stroke-width:0.35;" x="129.127941" xlink:href="#m2343a2fba9" y="21.019588"/>
     <use style="fill:#6699cc;fill-opacity:0.75;stroke:#000000;stroke-linejoin:miter;stroke-opacity:0.75;stroke-width:0.35;" x="129.127941" xlink:href="#m2343a2fba9" y="21.019588"/>
    </g>
   </g>
   <g id="line2d_13">
    <defs>
     <path d="M -0 3.535534 
L 2.12132 0 
L -0 -3.535534 
L -2.12132 -0 
z
" id="mc89cbe906d" style="stroke:#000000;stroke-linejoin:miter;stroke-opacity:0.75;stroke-width:0.35;"/>
    </defs>
    <g clip-path="url(#p3c3def9374)">
     <use style="fill:#ff8c00;fill-opacity:0.75;stroke:#000000;stroke-linejoin:miter;stroke-opacity:0.75;stroke-width:0.35;" x="172.4085" xlink:href="#mc89cbe906d" y="22.473"/>
     <use style="fill:#ff8c00;fill-opacity:0.75;stroke:#000000;stroke-linejoin:miter;stroke-opacity:0.75;stroke-width:0.35;" x="88.432773" xlink:href="#mc89cbe906d" y="72.139117"/>
     <use style="fill:#ff8c00;fill-opacity:0.75;stroke:#000000;stroke-linejoin:miter;stroke-opacity:0.75;stroke-width:0.35;" x="57.404069" xlink:href="#mc89cbe906d" y="84.189155"/>
     <use style="fill:#ff8c00;fill-opacity:0.75;stroke:#000000;stroke-linejoin:miter;stroke-opacity:0.75;stroke-width:0.35;" x="49.262183" xlink:href="#mc89cbe906d" y="81.03079"/>
     <use style="fill:#ff8c00;fill-opacity:0.75;stroke:#000000;stroke-linejoin:miter;stroke-opacity:0.75;stroke-width:0.35;" x="49.728124" xlink:href="#mc89cbe906d" y="73.55425"/>
     <use style="fill:#ff8c00;fill-opacity:0.75;stroke:#000000;stroke-linejoin:miter;stroke-opacity:0.75;stroke-width:0.35;" x="52.690343" xlink:href="#mc89cbe906d" y="66.16801"/>
     <use style="fill:#ff8c00;fill-opacity:0.75;stroke:#000000;stroke-linejoin:miter;stroke-opacity:0.75;stroke-width:0.35;" x="55.817889" xlink:href="#mc89cbe906d" y="60.232716"/>
     <use style="fill:#ff8c00;fill-opacity:0.75;stroke:#000000;stroke-linejoin:miter;stroke-opacity:0.75;stroke-width:0.35;" x="58.384345" xlink:href="#mc89cbe906d" y="55.881955"/>
     <use style="fill:#ff8c00;fill-opacity:0.75;stroke:#000000;stroke-linejoin:miter;stroke-opacity:0.75;stroke-width:0.35;" x="60.284051" xlink:href="#mc89cbe906d" y="52.848532"/>
     <use style="fill:#ff8c00;fill-opacity:0.75;stroke:#000000;stroke-linejoin:miter;stroke-opacity:0.75;stroke-width:0.35;" x="61.615901" xlink:href="#mc89cbe906d" y="50.796746"/>
     <use style="fill:#ff8c00;fill-opacity:0.75;stroke:#000000;stroke-linejoin:miter;stroke-opacity:0.75;stroke-width:0.35;" x="62.519938" xlink:href="#mc89cbe906d" y="49.4358"/>
     <use style="fill:#ff8c00;fill-opacity:0.75;stroke:#000000;stroke-linejoin:miter;stroke-opacity:0.75;stroke-width:0.35;" x="63.121031" xlink:href="#mc89cbe906d" y="48.544867"/>
    </g>
   </g>
   <g id="line2d_14">
    <defs>
     <path d="M -3 3 
L 3 3 
L 3 -3 
L -3 -3 
z
" id="m7e75caf46a" style="stroke:#000000;stroke-linejoin:miter;stroke-width:0.5;"/>
    </defs>
    <g clip-path="url(#p3c3def9374)">
     <use style="fill-opacity:0;stroke:#000000;stroke-linejoin:miter;stroke-width:0.5;" x="172.4085" xlink:href="#m7e75caf46a" y="22.473"/>
    </g>
   </g>
   <g id="patch_3">
    <path d="M 29.7 94.5 
L 29.7 12.96 
" style="fill:none;stroke:#000000;stroke-linecap:square;stroke-linejoin:miter;stroke-width:0.5;"/>
   </g>
   <g id="patch_4">
    <path d="M 213.84 94.5 
L 213.84 12.96 
" style="fill:none;stroke:#000000;stroke-linecap:square;stroke-linejoin:miter;stroke-width:0.5;"/>
   </g>
   <g id="patch_5">
    <path d="M 29.7 94.5 
L 213.84 94.5 
" style="fill:none;stroke:#000000;stroke-linecap:square;stroke-linejoin:miter;stroke-width:0.5;"/>
   </g>
   <g id="patch_6">
    <path d="M 29.7 12.96 
L 213.84 12.96 
" style="fill:none;stroke:#000000;stroke-linecap:square;stroke-linejoin:miter;stroke-width:0.5;"/>
   </g>
   <g id="legend_1">
    <g id="patch_7">
     <path d="M 158.285625 91.5 
L 210.84 91.5 
L 210.84 65.961562 
L 158.285625 65.961562 
z
" style="fill:#ffffff;stroke:#000000;stroke-linejoin:miter;stroke-width:0.25;"/>
    </g>
    <g id="line2d_15"/>
    <g id="line2d_16">
     <g>
      <use style="fill:#6699cc;fill-opacity:0.75;stroke:#000000;stroke-linejoin:miter;stroke-opacity:0.75;stroke-width:0.35;" x="162.485625" xlink:href="#m2343a2fba9" y="69.65625"/>
     </g>
    </g>
    <g id="text_12">
     <!-- Likelihood-free -->
     <g transform="translate(169.985625 71.75625)scale(0.06 -0.06)">
      <defs>
       <path d="M 7.328125 0 
L 7.328125 71.578125 
L 16.796875 71.578125 
L 16.796875 8.453125 
L 52.046875 8.453125 
L 52.046875 0 
z
" id="ArialMT-76"/>
       <path d="M 6.640625 61.46875 
L 6.640625 71.578125 
L 15.4375 71.578125 
L 15.4375 61.46875 
z
M 6.640625 0 
L 6.640625 51.859375 
L 15.4375 51.859375 
L 15.4375 0 
z
" id="ArialMT-105"/>
       <path d="M 6.640625 0 
L 6.640625 71.578125 
L 15.4375 71.578125 
L 15.4375 30.765625 
L 36.234375 51.859375 
L 47.609375 51.859375 
L 27.78125 32.625 
L 49.609375 0 
L 38.765625 0 
L 21.625 26.515625 
L 15.4375 20.5625 
L 15.4375 0 
z
" id="ArialMT-107"/>
       <path d="M 42.09375 16.703125 
L 51.171875 15.578125 
Q 49.03125 7.625 43.21875 3.21875 
Q 37.40625 -1.171875 28.375 -1.171875 
Q 17 -1.171875 10.328125 5.828125 
Q 3.65625 12.84375 3.65625 25.484375 
Q 3.65625 38.578125 10.390625 45.796875 
Q 17.140625 53.03125 27.875 53.03125 
Q 38.28125 53.03125 44.875 45.953125 
Q 51.46875 38.875 51.46875 26.03125 
Q 51.46875 25.25 51.421875 23.6875 
L 12.75 23.6875 
Q 13.234375 15.140625 17.578125 10.59375 
Q 21.921875 6.0625 28.421875 6.0625 
Q 33.25 6.0625 36.671875 8.59375 
Q 40.09375 11.140625 42.09375 16.703125 
z
M 13.234375 30.90625 
L 42.1875 30.90625 
Q 41.609375 37.453125 38.875 40.71875 
Q 34.671875 45.796875 27.984375 45.796875 
Q 21.921875 45.796875 17.796875 41.75 
Q 13.671875 37.703125 13.234375 30.90625 
z
" id="ArialMT-101"/>
       <path d="M 6.390625 0 
L 6.390625 71.578125 
L 15.1875 71.578125 
L 15.1875 0 
z
" id="ArialMT-108"/>
       <path d="M 6.59375 0 
L 6.59375 71.578125 
L 15.375 71.578125 
L 15.375 45.90625 
Q 21.53125 53.03125 30.90625 53.03125 
Q 36.671875 53.03125 40.921875 50.75 
Q 45.171875 48.484375 47 44.484375 
Q 48.828125 40.484375 48.828125 32.859375 
L 48.828125 0 
L 40.046875 0 
L 40.046875 32.859375 
Q 40.046875 39.453125 37.1875 42.453125 
Q 34.328125 45.453125 29.109375 45.453125 
Q 25.203125 45.453125 21.75 43.421875 
Q 18.3125 41.40625 16.84375 37.9375 
Q 15.375 34.46875 15.375 28.375 
L 15.375 0 
z
" id="ArialMT-104"/>
       <path d="M 3.328125 25.921875 
Q 3.328125 40.328125 11.328125 47.265625 
Q 18.015625 53.03125 27.640625 53.03125 
Q 38.328125 53.03125 45.109375 46.015625 
Q 51.90625 39.015625 51.90625 26.65625 
Q 51.90625 16.65625 48.90625 10.90625 
Q 45.90625 5.171875 40.15625 2 
Q 34.421875 -1.171875 27.640625 -1.171875 
Q 16.75 -1.171875 10.03125 5.8125 
Q 3.328125 12.796875 3.328125 25.921875 
z
M 12.359375 25.921875 
Q 12.359375 15.96875 16.703125 11.015625 
Q 21.046875 6.0625 27.640625 6.0625 
Q 34.1875 6.0625 38.53125 11.03125 
Q 42.875 16.015625 42.875 26.21875 
Q 42.875 35.84375 38.5 40.796875 
Q 34.125 45.75 27.640625 45.75 
Q 21.046875 45.75 16.703125 40.8125 
Q 12.359375 35.890625 12.359375 25.921875 
z
" id="ArialMT-111"/>
       <path d="M 40.234375 0 
L 40.234375 6.546875 
Q 35.296875 -1.171875 25.734375 -1.171875 
Q 19.53125 -1.171875 14.328125 2.25 
Q 9.125 5.671875 6.265625 11.796875 
Q 3.421875 17.921875 3.421875 25.875 
Q 3.421875 33.640625 6 39.96875 
Q 8.59375 46.296875 13.765625 49.65625 
Q 18.953125 53.03125 25.34375 53.03125 
Q 30.03125 53.03125 33.6875 51.046875 
Q 37.359375 49.078125 39.65625 45.90625 
L 39.65625 71.578125 
L 48.390625 71.578125 
L 48.390625 0 
z
M 12.453125 25.875 
Q 12.453125 15.921875 16.640625 10.984375 
Q 20.84375 6.0625 26.5625 6.0625 
Q 32.328125 6.0625 36.34375 10.765625 
Q 40.375 15.484375 40.375 25.140625 
Q 40.375 35.796875 36.265625 40.765625 
Q 32.171875 45.75 26.171875 45.75 
Q 20.3125 45.75 16.375 40.96875 
Q 12.453125 36.1875 12.453125 25.875 
z
" id="ArialMT-100"/>
       <path d="M 3.171875 21.484375 
L 3.171875 30.328125 
L 30.171875 30.328125 
L 30.171875 21.484375 
z
" id="ArialMT-45"/>
       <path d="M 8.6875 0 
L 8.6875 45.015625 
L 0.921875 45.015625 
L 0.921875 51.859375 
L 8.6875 51.859375 
L 8.6875 57.375 
Q 8.6875 62.59375 9.625 65.140625 
Q 10.890625 68.5625 14.078125 70.671875 
Q 17.28125 72.796875 23.046875 72.796875 
Q 26.765625 72.796875 31.25 71.921875 
L 29.9375 64.265625 
Q 27.203125 64.75 24.75 64.75 
Q 20.75 64.75 19.09375 63.03125 
Q 17.4375 61.328125 17.4375 56.640625 
L 17.4375 51.859375 
L 27.546875 51.859375 
L 27.546875 45.015625 
L 17.4375 45.015625 
L 17.4375 0 
z
" id="ArialMT-102"/>
       <path d="M 6.5 0 
L 6.5 51.859375 
L 14.40625 51.859375 
L 14.40625 44 
Q 17.4375 49.515625 20 51.265625 
Q 22.5625 53.03125 25.640625 53.03125 
Q 30.078125 53.03125 34.671875 50.203125 
L 31.640625 42.046875 
Q 28.421875 43.953125 25.203125 43.953125 
Q 22.3125 43.953125 20.015625 42.21875 
Q 17.71875 40.484375 16.75 37.40625 
Q 15.28125 32.71875 15.28125 27.15625 
L 15.28125 0 
z
" id="ArialMT-114"/>
      </defs>
      <use xlink:href="#ArialMT-76"/>
      <use x="55.615234" xlink:href="#ArialMT-105"/>
      <use x="77.832031" xlink:href="#ArialMT-107"/>
      <use x="127.832031" xlink:href="#ArialMT-101"/>
      <use x="183.447266" xlink:href="#ArialMT-108"/>
      <use x="205.664062" xlink:href="#ArialMT-105"/>
      <use x="227.880859" xlink:href="#ArialMT-104"/>
      <use x="283.496094" xlink:href="#ArialMT-111"/>
      <use x="339.111328" xlink:href="#ArialMT-111"/>
      <use x="394.726562" xlink:href="#ArialMT-100"/>
      <use x="450.341797" xlink:href="#ArialMT-45"/>
      <use x="483.642578" xlink:href="#ArialMT-102"/>
      <use x="511.425781" xlink:href="#ArialMT-114"/>
      <use x="544.726562" xlink:href="#ArialMT-101"/>
      <use x="600.341797" xlink:href="#ArialMT-101"/>
     </g>
    </g>
    <g id="line2d_17"/>
    <g id="line2d_18">
     <g>
      <use style="fill:#ff8c00;fill-opacity:0.75;stroke:#000000;stroke-linejoin:miter;stroke-opacity:0.75;stroke-width:0.35;" x="162.485625" xlink:href="#mc89cbe906d" y="78.220313"/>
     </g>
    </g>
    <g id="text_13">
     <!-- Our proposal -->
     <g transform="translate(169.985625 80.320312)scale(0.06 -0.06)">
      <defs>
       <path d="M 4.828125 34.859375 
Q 4.828125 52.6875 14.390625 62.765625 
Q 23.96875 72.859375 39.109375 72.859375 
Q 49.03125 72.859375 56.984375 68.109375 
Q 64.9375 63.375 69.109375 54.90625 
Q 73.296875 46.4375 73.296875 35.6875 
Q 73.296875 24.8125 68.890625 16.21875 
Q 64.5 7.625 56.4375 3.203125 
Q 48.390625 -1.21875 39.0625 -1.21875 
Q 28.953125 -1.21875 20.984375 3.65625 
Q 13.03125 8.546875 8.921875 16.984375 
Q 4.828125 25.4375 4.828125 34.859375 
z
M 14.59375 34.71875 
Q 14.59375 21.78125 21.546875 14.328125 
Q 28.515625 6.890625 39.015625 6.890625 
Q 49.703125 6.890625 56.609375 14.40625 
Q 63.53125 21.921875 63.53125 35.75 
Q 63.53125 44.484375 60.578125 51 
Q 57.625 57.515625 51.921875 61.109375 
Q 46.234375 64.703125 39.15625 64.703125 
Q 29.109375 64.703125 21.84375 57.78125 
Q 14.59375 50.875 14.59375 34.71875 
z
" id="ArialMT-79"/>
       <path d="M 40.578125 0 
L 40.578125 7.625 
Q 34.515625 -1.171875 24.125 -1.171875 
Q 19.53125 -1.171875 15.546875 0.578125 
Q 11.578125 2.34375 9.640625 5 
Q 7.71875 7.671875 6.9375 11.53125 
Q 6.390625 14.109375 6.390625 19.734375 
L 6.390625 51.859375 
L 15.1875 51.859375 
L 15.1875 23.09375 
Q 15.1875 16.21875 15.71875 13.8125 
Q 16.546875 10.359375 19.234375 8.375 
Q 21.921875 6.390625 25.875 6.390625 
Q 29.828125 6.390625 33.296875 8.421875 
Q 36.765625 10.453125 38.203125 13.9375 
Q 39.65625 17.4375 39.65625 24.078125 
L 39.65625 51.859375 
L 48.4375 51.859375 
L 48.4375 0 
z
" id="ArialMT-117"/>
       <path id="ArialMT-32"/>
       <path d="M 6.59375 -19.875 
L 6.59375 51.859375 
L 14.59375 51.859375 
L 14.59375 45.125 
Q 17.4375 49.078125 21 51.046875 
Q 24.5625 53.03125 29.640625 53.03125 
Q 36.28125 53.03125 41.359375 49.609375 
Q 46.4375 46.1875 49.015625 39.953125 
Q 51.609375 33.734375 51.609375 26.3125 
Q 51.609375 18.359375 48.75 11.984375 
Q 45.90625 5.609375 40.453125 2.21875 
Q 35.015625 -1.171875 29 -1.171875 
Q 24.609375 -1.171875 21.109375 0.6875 
Q 17.625 2.546875 15.375 5.375 
L 15.375 -19.875 
z
M 14.546875 25.640625 
Q 14.546875 15.625 18.59375 10.84375 
Q 22.65625 6.0625 28.421875 6.0625 
Q 34.28125 6.0625 38.453125 11.015625 
Q 42.625 15.96875 42.625 26.375 
Q 42.625 36.28125 38.546875 41.203125 
Q 34.46875 46.140625 28.8125 46.140625 
Q 23.1875 46.140625 18.859375 40.890625 
Q 14.546875 35.640625 14.546875 25.640625 
z
" id="ArialMT-112"/>
       <path d="M 3.078125 15.484375 
L 11.765625 16.84375 
Q 12.5 11.625 15.84375 8.84375 
Q 19.1875 6.0625 25.203125 6.0625 
Q 31.25 6.0625 34.171875 8.515625 
Q 37.109375 10.984375 37.109375 14.3125 
Q 37.109375 17.28125 34.515625 19 
Q 32.71875 20.171875 25.53125 21.96875 
Q 15.875 24.421875 12.140625 26.203125 
Q 8.40625 27.984375 6.46875 31.125 
Q 4.546875 34.28125 4.546875 38.09375 
Q 4.546875 41.546875 6.125 44.5 
Q 7.71875 47.46875 10.453125 49.421875 
Q 12.5 50.921875 16.03125 51.96875 
Q 19.578125 53.03125 23.640625 53.03125 
Q 29.734375 53.03125 34.34375 51.265625 
Q 38.96875 49.515625 41.15625 46.5 
Q 43.359375 43.5 44.1875 38.484375 
L 35.59375 37.3125 
Q 35.015625 41.3125 32.203125 43.546875 
Q 29.390625 45.796875 24.265625 45.796875 
Q 18.21875 45.796875 15.625 43.796875 
Q 13.03125 41.796875 13.03125 39.109375 
Q 13.03125 37.40625 14.109375 36.03125 
Q 15.1875 34.625 17.484375 33.6875 
Q 18.796875 33.203125 25.25 31.453125 
Q 34.578125 28.953125 38.25 27.359375 
Q 41.9375 25.78125 44.03125 22.75 
Q 46.140625 19.734375 46.140625 15.234375 
Q 46.140625 10.84375 43.578125 6.953125 
Q 41.015625 3.078125 36.171875 0.953125 
Q 31.34375 -1.171875 25.25 -1.171875 
Q 15.140625 -1.171875 9.84375 3.03125 
Q 4.546875 7.234375 3.078125 15.484375 
z
" id="ArialMT-115"/>
       <path d="M 40.4375 6.390625 
Q 35.546875 2.25 31.03125 0.53125 
Q 26.515625 -1.171875 21.34375 -1.171875 
Q 12.796875 -1.171875 8.203125 3 
Q 3.609375 7.171875 3.609375 13.671875 
Q 3.609375 17.484375 5.34375 20.625 
Q 7.078125 23.78125 9.890625 25.6875 
Q 12.703125 27.59375 16.21875 28.5625 
Q 18.796875 29.25 24.03125 29.890625 
Q 34.671875 31.15625 39.703125 32.90625 
Q 39.75 34.71875 39.75 35.203125 
Q 39.75 40.578125 37.25 42.78125 
Q 33.890625 45.75 27.25 45.75 
Q 21.046875 45.75 18.09375 43.578125 
Q 15.140625 41.40625 13.71875 35.890625 
L 5.125 37.0625 
Q 6.296875 42.578125 8.984375 45.96875 
Q 11.671875 49.359375 16.75 51.1875 
Q 21.828125 53.03125 28.515625 53.03125 
Q 35.15625 53.03125 39.296875 51.46875 
Q 43.453125 49.90625 45.40625 47.53125 
Q 47.359375 45.171875 48.140625 41.546875 
Q 48.578125 39.3125 48.578125 33.453125 
L 48.578125 21.734375 
Q 48.578125 9.46875 49.140625 6.21875 
Q 49.703125 2.984375 51.375 0 
L 42.1875 0 
Q 40.828125 2.734375 40.4375 6.390625 
z
M 39.703125 26.03125 
Q 34.90625 24.078125 25.34375 22.703125 
Q 19.921875 21.921875 17.671875 20.9375 
Q 15.4375 19.96875 14.203125 18.09375 
Q 12.984375 16.21875 12.984375 13.921875 
Q 12.984375 10.40625 15.640625 8.0625 
Q 18.3125 5.71875 23.4375 5.71875 
Q 28.515625 5.71875 32.46875 7.9375 
Q 36.421875 10.15625 38.28125 14.015625 
Q 39.703125 17 39.703125 22.796875 
z
" id="ArialMT-97"/>
      </defs>
      <use xlink:href="#ArialMT-79"/>
      <use x="77.783203" xlink:href="#ArialMT-117"/>
      <use x="133.398438" xlink:href="#ArialMT-114"/>
      <use x="166.699219" xlink:href="#ArialMT-32"/>
      <use x="194.482422" xlink:href="#ArialMT-112"/>
      <use x="250.097656" xlink:href="#ArialMT-114"/>
      <use x="283.398438" xlink:href="#ArialMT-111"/>
      <use x="339.013672" xlink:href="#ArialMT-112"/>
      <use x="394.628906" xlink:href="#ArialMT-111"/>
      <use x="450.244141" xlink:href="#ArialMT-115"/>
      <use x="500.244141" xlink:href="#ArialMT-97"/>
      <use x="555.859375" xlink:href="#ArialMT-108"/>
     </g>
    </g>
    <g id="line2d_19"/>
    <g id="line2d_20">
     <g>
      <use style="fill-opacity:0;stroke:#000000;stroke-linejoin:miter;stroke-width:0.5;" x="162.485625" xlink:href="#m7e75caf46a" y="86.7075"/>
     </g>
    </g>
    <g id="text_14">
     <!-- Initial state -->
     <g transform="translate(169.985625 88.8075)scale(0.06 -0.06)">
      <defs>
       <path d="M 9.328125 0 
L 9.328125 71.578125 
L 18.796875 71.578125 
L 18.796875 0 
z
" id="ArialMT-73"/>
       <path d="M 6.59375 0 
L 6.59375 51.859375 
L 14.5 51.859375 
L 14.5 44.484375 
Q 20.21875 53.03125 31 53.03125 
Q 35.6875 53.03125 39.625 51.34375 
Q 43.5625 49.65625 45.515625 46.921875 
Q 47.46875 44.1875 48.25 40.4375 
Q 48.734375 37.984375 48.734375 31.890625 
L 48.734375 0 
L 39.9375 0 
L 39.9375 31.546875 
Q 39.9375 36.921875 38.90625 39.578125 
Q 37.890625 42.234375 35.28125 43.8125 
Q 32.671875 45.40625 29.15625 45.40625 
Q 23.53125 45.40625 19.453125 41.84375 
Q 15.375 38.28125 15.375 28.328125 
L 15.375 0 
z
" id="ArialMT-110"/>
       <path d="M 25.78125 7.859375 
L 27.046875 0.09375 
Q 23.34375 -0.6875 20.40625 -0.6875 
Q 15.625 -0.6875 12.984375 0.828125 
Q 10.359375 2.34375 9.28125 4.8125 
Q 8.203125 7.28125 8.203125 15.1875 
L 8.203125 45.015625 
L 1.765625 45.015625 
L 1.765625 51.859375 
L 8.203125 51.859375 
L 8.203125 64.703125 
L 16.9375 69.96875 
L 16.9375 51.859375 
L 25.78125 51.859375 
L 25.78125 45.015625 
L 16.9375 45.015625 
L 16.9375 14.703125 
Q 16.9375 10.9375 17.40625 9.859375 
Q 17.875 8.796875 18.921875 8.15625 
Q 19.96875 7.515625 21.921875 7.515625 
Q 23.390625 7.515625 25.78125 7.859375 
z
" id="ArialMT-116"/>
      </defs>
      <use xlink:href="#ArialMT-73"/>
      <use x="27.783203" xlink:href="#ArialMT-110"/>
      <use x="83.398438" xlink:href="#ArialMT-105"/>
      <use x="105.615234" xlink:href="#ArialMT-116"/>
      <use x="133.398438" xlink:href="#ArialMT-105"/>
      <use x="155.615234" xlink:href="#ArialMT-97"/>
      <use x="211.230469" xlink:href="#ArialMT-108"/>
      <use x="233.447266" xlink:href="#ArialMT-32"/>
      <use x="261.230469" xlink:href="#ArialMT-115"/>
      <use x="311.230469" xlink:href="#ArialMT-116"/>
      <use x="339.013672" xlink:href="#ArialMT-97"/>
      <use x="394.628906" xlink:href="#ArialMT-116"/>
      <use x="422.412109" xlink:href="#ArialMT-101"/>
     </g>
    </g>
   </g>
  </g>
 </g>
 <defs>
  <clipPath id="p3c3def9374">
   <rect height="81.54" width="184.14" x="29.7" y="12.96"/>
  </clipPath>
 </defs>
</svg>
