<?xml version="1.0" encoding="utf-8" standalone="no"?>
<!DOCTYPE svg PUBLIC "-//W3C//DTD SVG 1.1//EN"
  "http://www.w3.org/Graphics/SVG/1.1/DTD/svg11.dtd">
<!-- Created with matplotlib (https://matplotlib.org/) -->
<svg height="162pt" version="1.1" viewBox="0 0 237.6 162" width="237.6pt" xmlns="http://www.w3.org/2000/svg" xmlns:xlink="http://www.w3.org/1999/xlink">
 <metadata>
  <rdf:RDF xmlns:cc="http://creativecommons.org/ns#" xmlns:dc="http://purl.org/dc/elements/1.1/" xmlns:rdf="http://www.w3.org/1999/02/22-rdf-syntax-ns#">
   <cc:Work>
    <dc:type rdf:resource="http://purl.org/dc/dcmitype/StillImage"/>
    <dc:date>2020-07-27T15:32:06.977566</dc:date>
    <dc:format>image/svg+xml</dc:format>
    <dc:creator>
     <cc:Agent>
      <dc:title>Matplotlib v3.3.0, https://matplotlib.org/</dc:title>
     </cc:Agent>
    </dc:creator>
   </cc:Work>
  </rdf:RDF>
 </metadata>
 <defs>
  <style type="text/css">*{stroke-linecap:butt;stroke-linejoin:round;}</style>
 </defs>
 <g id="figure_1">
  <g id="patch_1">
   <path d="M 0 162 
L 237.6 162 
L 237.6 0 
L 0 0 
z
" style="fill:none;"/>
  </g>
  <g id="axes_1">
   <g id="patch_2">
    <path d="M 37.174 77.074 
L 129.327 77.074 
L 129.327 18.24 
L 37.174 18.24 
z
" style="fill:#ffffff;"/>
   </g>
   <g id="PathCollection_1">
    <path clip-path="url(#pb9c9a48531)" d="M 45.813344 77.074 
L 48.693125 77.074 
L 51.572906 77.074 
L 54.452687 77.074 
L 57.332469 77.074 
L 60.21225 77.074 
L 63.092031 77.074 
L 65.971812 77.074 
L 68.851594 77.074 
L 71.731375 77.074 
L 74.611156 77.074 
L 77.490937 77.074 
L 80.370719 77.074 
L 83.2505 77.074 
L 86.130281 77.074 
L 89.010063 77.074 
L 91.889844 77.074 
L 94.769625 77.074 
L 97.649406 77.074 
L 100.529188 77.074 
L 103.408969 77.074 
L 106.28875 77.074 
L 109.168531 77.074 
L 112.048313 77.074 
L 114.928094 77.074 
L 117.807875 77.074 
L 120.687656 77.074 
L 123.567437 77.074 
L 126.447219 77.074 
L 129.327 77.074 
L 129.327 75.176129 
L 129.327 73.278258 
L 129.327 71.380387 
L 129.327 69.482516 
L 129.327 67.584645 
L 129.327 65.686774 
L 129.327 63.788903 
L 129.327 61.891032 
L 129.327 59.993161 
L 129.327 58.09529 
L 129.327 56.197419 
L 129.327 54.299548 
L 129.327 52.401677 
L 129.327 50.503806 
L 129.327 48.605935 
L 129.327 46.708065 
L 129.327 44.956288 
L 126.447219 46.594887 
L 126.25466 46.708065 
L 123.567437 48.115201 
L 122.667957 48.605935 
L 120.687656 49.579053 
L 118.879813 50.503806 
L 117.807875 51.002117 
L 114.928094 52.393852 
L 114.912076 52.401677 
L 112.048313 53.674207 
L 110.697744 54.299548 
L 109.168531 54.948299 
L 106.340199 56.197419 
L 106.28875 56.228803 
L 103.408969 57.390519 
L 101.746581 58.09529 
L 100.529188 58.624199 
L 97.649406 59.727046 
L 96.995472 59.993161 
L 94.769625 60.829238 
L 92.061235 61.891032 
L 91.889844 61.990187 
L 89.010063 62.996361 
L 86.908938 63.788903 
L 86.130281 64.160675 
L 83.2505 65.077109 
L 81.570668 65.686774 
L 80.370719 66.194446 
L 77.490937 67.075669 
L 76.033477 67.584645 
L 74.611156 68.146992 
L 71.731375 68.996081 
L 70.283866 69.482516 
L 68.851594 70.036755 
L 65.971812 70.842247 
L 64.307815 71.380387 
L 63.092031 71.86263 
L 60.21225 72.617935 
L 58.090814 73.278258 
L 57.332469 73.603412 
L 54.452687 74.326783 
L 51.6179 75.176129 
L 51.572906 75.198516 
L 48.693125 75.972304 
L 45.813344 76.784985 
L 44.78664 77.074 
z
" style="fill:#4e68d8;fill-opacity:0.75;"/>
    <path clip-path="url(#pb9c9a48531)" d="M 40.053781 49.024536 
L 41.192145 48.605935 
L 42.933563 47.975511 
L 45.813344 46.986879 
L 46.598336 46.708065 
L 48.693125 46.00877 
L 51.572906 45.02148 
L 52.189777 44.810194 
L 54.452687 44.081314 
L 57.332469 43.128703 
L 57.988738 42.912323 
L 60.21225 42.216797 
L 63.092031 41.308976 
L 64.021802 41.014452 
L 65.971812 40.390471 
L 68.851594 39.562795 
L 70.320931 39.116581 
L 71.731375 38.633673 
L 74.611156 37.890713 
L 76.924862 37.21871 
L 77.490937 36.997974 
L 80.370719 36.293346 
L 83.2505 35.505998 
L 83.942812 35.320839 
L 86.130281 34.737459 
L 89.010063 34.047728 
L 91.479783 33.422968 
L 91.889844 33.2839 
L 94.769625 32.67024 
L 97.649406 32.012957 
L 99.814385 31.525097 
L 100.529188 31.327801 
L 103.408969 30.799945 
L 106.28875 30.235004 
L 109.168531 29.681457 
L 109.478305 29.627226 
L 112.048313 29.20686 
L 114.928094 28.772231 
L 117.807875 28.367463 
L 120.687656 28.004153 
L 123.264567 27.729355 
L 123.567437 27.696586 
L 126.447219 27.502574 
L 129.327 27.389995 
L 129.327 25.831484 
L 129.327 23.933613 
L 129.327 22.035742 
L 129.327 20.137871 
L 129.327 18.24 
L 126.447219 18.24 
L 123.567437 18.24 
L 120.687656 18.24 
L 117.807875 18.24 
L 114.928094 18.24 
L 112.048313 18.24 
L 109.168531 18.24 
L 106.28875 18.24 
L 103.408969 18.24 
L 100.529188 18.24 
L 97.649406 18.24 
L 94.769625 18.24 
L 91.889844 18.24 
L 89.010063 18.24 
L 86.130281 18.24 
L 83.2505 18.24 
L 80.370719 18.24 
L 77.490937 18.24 
L 74.611156 18.24 
L 71.731375 18.24 
L 68.851594 18.24 
L 65.971812 18.24 
L 63.092031 18.24 
L 60.21225 18.24 
L 57.332469 18.24 
L 54.452687 18.24 
L 51.572906 18.24 
L 48.693125 18.24 
L 45.813344 18.24 
L 42.933563 18.24 
L 40.053781 18.24 
L 37.174 18.24 
L 37.174 20.137871 
L 37.174 22.035742 
L 37.174 23.933613 
L 37.174 25.831484 
L 37.174 27.729355 
L 37.174 29.627226 
L 37.174 31.525097 
L 37.174 33.422968 
L 37.174 35.320839 
L 37.174 37.21871 
L 37.174 39.116581 
L 37.174 41.014452 
L 37.174 42.912323 
L 37.174 44.810194 
L 37.174 46.708065 
L 37.174 48.605935 
L 37.174 50.002761 
z
" style="fill:#4e68d8;fill-opacity:0.75;"/>
   </g>
   <g id="PathCollection_2">
    <path clip-path="url(#pb9c9a48531)" d="M 42.933563 77.074 
L 44.78664 77.074 
L 45.813344 76.784985 
L 48.693125 75.972304 
L 51.572906 75.198516 
L 51.6179 75.176129 
L 54.452687 74.326783 
L 57.332469 73.603412 
L 58.090814 73.278258 
L 60.21225 72.617935 
L 63.092031 71.86263 
L 64.307815 71.380387 
L 65.971812 70.842247 
L 68.851594 70.036755 
L 70.283866 69.482516 
L 71.731375 68.996081 
L 74.611156 68.146992 
L 76.033477 67.584645 
L 77.490937 67.075669 
L 80.370719 66.194446 
L 81.570668 65.686774 
L 83.2505 65.077109 
L 86.130281 64.160675 
L 86.908938 63.788903 
L 89.010063 62.996361 
L 91.889844 61.990187 
L 92.061235 61.891032 
L 94.769625 60.829238 
L 96.995472 59.993161 
L 97.649406 59.727046 
L 100.529188 58.624199 
L 101.746581 58.09529 
L 103.408969 57.390519 
L 106.28875 56.228803 
L 106.340199 56.197419 
L 109.168531 54.948299 
L 110.697744 54.299548 
L 112.048313 53.674207 
L 114.912076 52.401677 
L 114.928094 52.393852 
L 117.807875 51.002117 
L 118.879813 50.503806 
L 120.687656 49.579053 
L 122.667957 48.605935 
L 123.567437 48.115201 
L 126.25466 46.708065 
L 126.447219 46.594887 
L 129.327 44.956288 
L 129.327 44.810194 
L 129.327 42.912323 
L 129.327 42.57945 
L 128.886187 42.912323 
L 126.447219 44.470497 
L 125.939778 44.810194 
L 123.567437 46.184463 
L 122.70375 46.708065 
L 120.687656 47.783892 
L 119.213898 48.605935 
L 117.807875 49.305505 
L 115.501269 50.503806 
L 114.928094 50.772275 
L 112.048313 52.158337 
L 111.556265 52.401677 
L 109.168531 53.467374 
L 107.384693 54.299548 
L 106.28875 54.764948 
L 103.408969 56.028592 
L 103.0299 56.197419 
L 100.529188 57.212074 
L 98.448491 58.09529 
L 97.649406 58.4065 
L 94.769625 59.546582 
L 93.670653 59.993161 
L 91.889844 60.657551 
L 89.010063 61.77414 
L 88.709549 61.891032 
L 86.130281 62.812753 
L 83.526562 63.788903 
L 83.2505 63.884543 
L 80.370719 64.876857 
L 78.119918 65.686774 
L 77.490937 65.896039 
L 74.611156 66.854446 
L 72.496901 67.584645 
L 71.731375 67.829237 
L 68.851594 68.749932 
L 66.641631 69.482516 
L 65.971812 69.688043 
L 63.092031 70.567574 
L 60.537482 71.380387 
L 60.21225 71.476227 
L 57.332469 72.311474 
L 54.452687 73.184752 
L 54.139746 73.278258 
L 51.572906 73.985588 
L 48.693125 74.805251 
L 47.396017 75.176129 
L 45.813344 75.593731 
L 42.933562 76.357046 
L 40.313334 77.074 
z
" style="fill:#779af7;fill-opacity:0.75;"/>
    <path clip-path="url(#pb9c9a48531)" d="M 39.510769 50.503806 
L 40.053781 50.311952 
L 42.933563 49.294006 
L 44.820623 48.605935 
L 45.813344 48.26737 
L 48.693125 47.278251 
L 50.316907 46.708065 
L 51.572906 46.29528 
L 54.452687 45.340019 
L 56.022327 44.810194 
L 57.332469 44.396036 
L 60.21225 43.479593 
L 61.964091 42.912323 
L 63.092031 42.57006 
L 65.971813 41.697335 
L 68.175051 41.014452 
L 68.851594 40.817838 
L 71.731375 39.993677 
L 74.611156 39.143078 
L 74.703448 39.116581 
L 77.490937 38.36912 
L 80.370719 37.579622 
L 81.698102 37.21871 
L 83.2505 36.82423 
L 86.130281 36.101113 
L 89.010063 35.365191 
L 89.191805 35.320839 
L 91.889844 34.708132 
L 94.769625 34.054465 
L 97.547195 33.422968 
L 97.649406 33.401328 
L 100.529188 32.835666 
L 103.408969 32.280975 
L 106.28875 31.739813 
L 107.526661 31.525097 
L 109.168531 31.262845 
L 112.048313 30.847617 
L 114.928094 30.471927 
L 117.807875 30.147088 
L 120.687656 29.889257 
L 123.567437 29.722338 
L 126.447219 29.683259 
L 129.327 29.832234 
L 129.327 29.627226 
L 129.327 27.729355 
L 129.327 27.389995 
L 126.447219 27.502574 
L 123.567437 27.696586 
L 123.264567 27.729355 
L 120.687656 28.004153 
L 117.807875 28.367463 
L 114.928094 28.772231 
L 112.048313 29.20686 
L 109.478305 29.627226 
L 109.168531 29.681457 
L 106.28875 30.235004 
L 103.408969 30.799945 
L 100.529188 31.327801 
L 99.814385 31.525097 
L 97.649406 32.012957 
L 94.769625 32.67024 
L 91.889844 33.2839 
L 91.479783 33.422968 
L 89.010063 34.047728 
L 86.130281 34.737459 
L 83.942812 35.320839 
L 83.2505 35.505998 
L 80.370719 36.293346 
L 77.490937 36.997974 
L 76.924862 37.21871 
L 74.611156 37.890713 
L 71.731375 38.633673 
L 70.320931 39.116581 
L 68.851594 39.562795 
L 65.971812 40.390471 
L 64.021802 41.014452 
L 63.092031 41.308976 
L 60.21225 42.216797 
L 57.988738 42.912323 
L 57.332469 43.128703 
L 54.452687 44.081314 
L 52.189777 44.810194 
L 51.572906 45.02148 
L 48.693125 46.00877 
L 46.598336 46.708065 
L 45.813344 46.986879 
L 42.933562 47.975511 
L 41.192145 48.605935 
L 40.053781 49.024536 
L 37.174 50.002761 
L 37.174 50.503806 
L 37.174 51.387077 
z
" style="fill:#779af7;fill-opacity:0.75;"/>
   </g>
   <g id="PathCollection_3">
    <path clip-path="url(#pb9c9a48531)" d="M 40.053781 77.074 
L 40.313334 77.074 
L 42.933563 76.357046 
L 45.813344 75.593731 
L 47.396017 75.176129 
L 48.693125 74.805251 
L 51.572906 73.985588 
L 54.139746 73.278258 
L 54.452687 73.184752 
L 57.332469 72.311474 
L 60.21225 71.476227 
L 60.537482 71.380387 
L 63.092031 70.567574 
L 65.971812 69.688043 
L 66.641631 69.482516 
L 68.851594 68.749932 
L 71.731375 67.829237 
L 72.496901 67.584645 
L 74.611156 66.854446 
L 77.490937 65.896039 
L 78.119918 65.686774 
L 80.370719 64.876857 
L 83.2505 63.884543 
L 83.526562 63.788903 
L 86.130281 62.812753 
L 88.709549 61.891032 
L 89.010063 61.77414 
L 91.889844 60.657551 
L 93.670653 59.993161 
L 94.769625 59.546582 
L 97.649406 58.4065 
L 98.448491 58.09529 
L 100.529188 57.212074 
L 103.0299 56.197419 
L 103.408969 56.028592 
L 106.28875 54.764948 
L 107.384693 54.299548 
L 109.168531 53.467374 
L 111.556265 52.401677 
L 112.048313 52.158337 
L 114.928094 50.772275 
L 115.501269 50.503806 
L 117.807875 49.305505 
L 119.213898 48.605935 
L 120.687656 47.783892 
L 122.70375 46.708065 
L 123.567437 46.184463 
L 125.939778 44.810194 
L 126.447219 44.470497 
L 128.886187 42.912323 
L 129.327 42.57945 
L 129.327 41.014452 
L 129.327 39.116581 
L 129.327 38.181486 
L 128.764344 39.116581 
L 126.921924 41.014452 
L 126.447219 41.381551 
L 124.569758 42.912323 
L 123.567437 43.584942 
L 121.83272 44.810194 
L 120.687656 45.496266 
L 118.763023 46.708065 
L 117.807875 47.2295 
L 115.405017 48.605935 
L 114.928094 48.846773 
L 112.048313 50.355194 
L 111.773609 50.503806 
L 109.168531 51.748063 
L 107.865936 52.401677 
L 106.28875 53.109307 
L 103.75981 54.299548 
L 103.408969 54.448714 
L 100.529188 55.688567 
L 99.392787 56.197419 
L 97.649406 56.903295 
L 94.84549 58.09529 
L 94.769625 58.124696 
L 91.889844 59.237178 
L 90.026463 59.993161 
L 89.010063 60.369422 
L 86.130281 61.456708 
L 85.008315 61.891032 
L 83.2505 62.512411 
L 80.370719 63.567979 
L 79.772499 63.788903 
L 77.490937 64.558913 
L 74.611156 65.576837 
L 74.299062 65.686774 
L 71.731375 66.513979 
L 68.851594 67.488893 
L 68.566573 67.584645 
L 65.971812 68.382468 
L 63.092031 69.309536 
L 62.552063 69.482516 
L 60.21225 70.169056 
L 57.332469 71.043939 
L 56.230965 71.380387 
L 54.452687 71.878244 
L 51.572906 72.69707 
L 49.57707 73.278258 
L 48.693125 73.514362 
L 45.813344 74.273699 
L 42.933563 75.064642 
L 42.51751 75.176129 
L 40.053781 75.778404 
L 37.174 76.49699 
L 37.174 77.074 
z
" style="fill:#a3c2fe;fill-opacity:0.75;"/>
    <path clip-path="url(#pb9c9a48531)" d="M 38.254624 52.401677 
L 40.053781 51.756328 
L 42.933563 50.687666 
L 43.427028 50.503806 
L 45.813344 49.681494 
L 48.693125 48.644347 
L 48.800744 48.605935 
L 51.572906 47.690065 
L 54.40683 46.708065 
L 54.452687 46.693263 
L 57.332469 45.782127 
L 60.21225 44.827626 
L 60.265842 44.810194 
L 63.092031 43.957858 
L 65.971812 43.054218 
L 66.43058 42.912323 
L 68.851594 42.217525 
L 71.731375 41.370946 
L 72.947295 41.014452 
L 74.611156 40.561474 
L 77.490937 39.778054 
L 79.879371 39.116581 
L 80.370719 38.99013 
L 83.2505 38.275878 
L 86.130281 37.548552 
L 87.463281 37.21871 
L 89.010063 36.864838 
L 91.889844 36.224699 
L 94.769625 35.583192 
L 96.003255 35.320839 
L 97.649406 34.999022 
L 100.529188 34.467191 
L 103.408969 33.953727 
L 106.28875 33.463914 
L 106.570774 33.422968 
L 109.168531 33.081634 
L 112.048313 32.757127 
L 114.928094 32.499932 
L 117.807875 32.334395 
L 120.687656 32.298339 
L 123.567437 32.453876 
L 126.447219 32.910648 
L 128.115445 33.422968 
L 129.327 34.335368 
L 129.327 33.422968 
L 129.327 31.525097 
L 129.327 29.832234 
L 126.447219 29.683259 
L 123.567437 29.722338 
L 120.687656 29.889257 
L 117.807875 30.147088 
L 114.928094 30.471927 
L 112.048313 30.847617 
L 109.168531 31.262845 
L 107.526661 31.525097 
L 106.28875 31.739813 
L 103.408969 32.280975 
L 100.529188 32.835666 
L 97.649406 33.401328 
L 97.547195 33.422968 
L 94.769625 34.054465 
L 91.889844 34.708132 
L 89.191805 35.320839 
L 89.010063 35.365191 
L 86.130281 36.101113 
L 83.2505 36.82423 
L 81.698102 37.21871 
L 80.370719 37.579622 
L 77.490937 38.36912 
L 74.703448 39.116581 
L 74.611156 39.143078 
L 71.731375 39.993677 
L 68.851594 40.817838 
L 68.175051 41.014452 
L 65.971812 41.697335 
L 63.092031 42.57006 
L 61.964091 42.912323 
L 60.21225 43.479593 
L 57.332469 44.396036 
L 56.022327 44.810194 
L 54.452687 45.340019 
L 51.572906 46.29528 
L 50.316907 46.708065 
L 48.693125 47.278251 
L 45.813344 48.26737 
L 44.820623 48.605935 
L 42.933563 49.294006 
L 40.053781 50.311952 
L 39.510769 50.503806 
L 37.174 51.387077 
L 37.174 52.401677 
L 37.174 52.821145 
z
" style="fill:#a3c2fe;fill-opacity:0.75;"/>
   </g>
   <g id="PathCollection_4">
    <path clip-path="url(#pb9c9a48531)" d="M 40.053781 75.778404 
L 42.51751 75.176129 
L 42.933563 75.064642 
L 45.813344 74.273699 
L 48.693125 73.514362 
L 49.57707 73.278258 
L 51.572906 72.69707 
L 54.452687 71.878244 
L 56.230965 71.380387 
L 57.332469 71.043939 
L 60.21225 70.169056 
L 62.552063 69.482516 
L 63.092031 69.309536 
L 65.971812 68.382468 
L 68.566573 67.584645 
L 68.851594 67.488893 
L 71.731375 66.513979 
L 74.299062 65.686774 
L 74.611156 65.576837 
L 77.490937 64.558913 
L 79.772499 63.788903 
L 80.370719 63.567979 
L 83.2505 62.512411 
L 85.008315 61.891032 
L 86.130281 61.456708 
L 89.010063 60.369422 
L 90.026463 59.993161 
L 91.889844 59.237178 
L 94.769625 58.124696 
L 94.84549 58.09529 
L 97.649406 56.903295 
L 99.392787 56.197419 
L 100.529188 55.688567 
L 103.408969 54.448714 
L 103.75981 54.299548 
L 106.28875 53.109307 
L 107.865936 52.401677 
L 109.168531 51.748063 
L 111.773609 50.503806 
L 112.048313 50.355194 
L 114.928094 48.846773 
L 115.405017 48.605935 
L 117.807875 47.2295 
L 118.763023 46.708065 
L 120.687656 45.496266 
L 121.83272 44.810194 
L 123.567437 43.584942 
L 124.569758 42.912323 
L 126.447219 41.381551 
L 126.921924 41.014452 
L 128.764344 39.116581 
L 129.327 38.181486 
L 129.327 37.21871 
L 129.327 35.320839 
L 129.327 34.335368 
L 128.115445 33.422968 
L 126.447219 32.910648 
L 123.567437 32.453876 
L 120.687656 32.298339 
L 117.807875 32.334395 
L 114.928094 32.499932 
L 112.048313 32.757127 
L 109.168531 33.081634 
L 106.570774 33.422968 
L 106.28875 33.463914 
L 103.408969 33.953727 
L 100.529188 34.467191 
L 97.649406 34.999022 
L 96.003255 35.320839 
L 94.769625 35.583192 
L 91.889844 36.224699 
L 89.010063 36.864838 
L 87.463281 37.21871 
L 86.130281 37.548552 
L 83.2505 38.275878 
L 80.370719 38.99013 
L 79.879371 39.116581 
L 77.490937 39.778054 
L 74.611156 40.561474 
L 72.947295 41.014452 
L 71.731375 41.370946 
L 68.851594 42.217525 
L 66.43058 42.912323 
L 65.971812 43.054218 
L 63.092031 43.957858 
L 60.265842 44.810194 
L 60.21225 44.827626 
L 57.332469 45.782127 
L 54.452687 46.693263 
L 54.40683 46.708065 
L 51.572906 47.690065 
L 48.800744 48.605935 
L 48.693125 48.644347 
L 45.813344 49.681494 
L 43.427028 50.503806 
L 42.933563 50.687666 
L 40.053781 51.756328 
L 38.254624 52.401677 
L 37.174 52.821145 
L 37.174 54.299548 
L 37.174 54.43556 
L 37.511886 54.299548 
L 40.053781 53.368854 
L 42.558157 52.401677 
L 42.933563 52.268602 
L 45.813344 51.251305 
L 47.838206 50.503806 
L 48.693125 50.213828 
L 51.572906 49.232178 
L 53.351705 48.605935 
L 54.452687 48.249447 
L 57.332469 47.311067 
L 59.133117 46.708065 
L 60.21225 46.375386 
L 63.092031 45.4877 
L 65.22515 44.810194 
L 65.971812 44.591679 
L 68.851594 43.761933 
L 71.681313 42.912323 
L 71.731375 42.89846 
L 74.611156 42.133742 
L 77.490937 41.344851 
L 78.712296 41.014452 
L 80.370719 40.603214 
L 83.2505 39.899228 
L 86.130281 39.180708 
L 86.403254 39.116581 
L 89.010063 38.559174 
L 91.889844 37.950952 
L 94.769625 37.346659 
L 95.436538 37.21871 
L 97.649406 36.835464 
L 100.529188 36.374317 
L 103.408969 35.950608 
L 106.28875 35.578177 
L 108.8075 35.320839 
L 109.168531 35.288315 
L 112.048313 35.148018 
L 114.928094 35.14563 
L 117.462333 35.320839 
L 117.807875 35.362965 
L 120.687656 36.26327 
L 122.107027 37.21871 
L 122.381656 39.116581 
L 121.329878 41.014452 
L 120.687656 41.64169 
L 119.470103 42.912323 
L 117.807875 44.206852 
L 117.080687 44.810194 
L 114.928094 46.231649 
L 114.24907 46.708065 
L 112.048313 47.988105 
L 111.046134 48.605935 
L 109.168531 49.592878 
L 107.529879 50.503806 
L 106.28875 51.104314 
L 103.748166 52.401677 
L 103.408969 52.554826 
L 100.529188 53.88235 
L 99.663191 54.299548 
L 97.649406 55.158552 
L 95.34426 56.197419 
L 94.769625 56.429517 
L 91.889844 57.612402 
L 90.758539 58.09529 
L 89.010063 58.764921 
L 86.130281 59.925033 
L 85.961688 59.993161 
L 83.2505 60.977261 
L 80.87674 61.891032 
L 80.370719 62.067658 
L 77.490937 63.073423 
L 75.535109 63.788903 
L 74.611156 64.095659 
L 71.731375 65.059997 
L 69.927939 65.686774 
L 68.851594 66.026577 
L 65.971812 66.943291 
L 64.028885 67.584645 
L 63.092031 67.865808 
L 60.21225 68.729347 
L 57.80935 69.482516 
L 57.332469 69.618532 
L 54.452687 70.42395 
L 51.572906 71.271743 
L 51.196046 71.380387 
L 48.693125 72.032639 
L 45.813344 72.806866 
L 44.080843 73.278258 
L 42.933563 73.560719 
L 40.053781 74.257121 
L 37.174 74.978807 
L 37.174 75.176129 
L 37.174 76.49699 
z
" style="fill:#ccd9ed;fill-opacity:0.75;"/>
   </g>
   <g id="PathCollection_5">
    <path clip-path="url(#pb9c9a48531)" d="M 40.053781 74.257121 
L 42.933563 73.560719 
L 44.080843 73.278258 
L 45.813344 72.806866 
L 48.693125 72.032639 
L 51.196046 71.380387 
L 51.572906 71.271743 
L 54.452687 70.42395 
L 57.332469 69.618532 
L 57.80935 69.482516 
L 60.21225 68.729347 
L 63.092031 67.865808 
L 64.028885 67.584645 
L 65.971812 66.943291 
L 68.851594 66.026577 
L 69.927939 65.686774 
L 71.731375 65.059997 
L 74.611156 64.095659 
L 75.535109 63.788903 
L 77.490937 63.073423 
L 80.370719 62.067658 
L 80.87674 61.891032 
L 83.2505 60.977261 
L 85.961688 59.993161 
L 86.130281 59.925033 
L 89.010063 58.764921 
L 90.758539 58.09529 
L 91.889844 57.612402 
L 94.769625 56.429517 
L 95.34426 56.197419 
L 97.649406 55.158552 
L 99.663191 54.299548 
L 100.529188 53.88235 
L 103.408969 52.554826 
L 103.748166 52.401677 
L 106.28875 51.104314 
L 107.529879 50.503806 
L 109.168531 49.592878 
L 111.046134 48.605935 
L 112.048313 47.988105 
L 114.24907 46.708065 
L 114.928094 46.231649 
L 117.080687 44.810194 
L 117.807875 44.206852 
L 119.470103 42.912323 
L 120.687656 41.64169 
L 121.329878 41.014452 
L 122.381656 39.116581 
L 122.107027 37.21871 
L 120.687656 36.26327 
L 117.807875 35.362965 
L 117.462333 35.320839 
L 114.928094 35.14563 
L 112.048313 35.148018 
L 109.168531 35.288315 
L 108.8075 35.320839 
L 106.28875 35.578177 
L 103.408969 35.950608 
L 100.529188 36.374317 
L 97.649406 36.835464 
L 95.436538 37.21871 
L 94.769625 37.346659 
L 91.889844 37.950952 
L 89.010063 38.559174 
L 86.403254 39.116581 
L 86.130281 39.180708 
L 83.2505 39.899228 
L 80.370719 40.603214 
L 78.712296 41.014452 
L 77.490937 41.344851 
L 74.611156 42.133742 
L 71.731375 42.89846 
L 71.681313 42.912323 
L 68.851594 43.761933 
L 65.971812 44.591679 
L 65.22515 44.810194 
L 63.092031 45.4877 
L 60.21225 46.375386 
L 59.133117 46.708065 
L 57.332469 47.311067 
L 54.452688 48.249447 
L 53.351705 48.605935 
L 51.572906 49.232178 
L 48.693125 50.213828 
L 47.838206 50.503806 
L 45.813344 51.251305 
L 42.933563 52.268602 
L 42.558157 52.401677 
L 40.053781 53.368854 
L 37.511886 54.299548 
L 37.174 54.43556 
L 37.174 56.197419 
L 37.174 56.360366 
L 37.558145 56.197419 
L 40.053781 55.256554 
L 42.436002 54.299548 
L 42.933563 54.119478 
L 45.813344 53.074358 
L 47.579308 52.401677 
L 48.693125 52.018913 
L 51.572906 51.012584 
L 52.985688 50.503806 
L 54.452687 50.026519 
L 57.332469 49.069846 
L 58.699562 48.605935 
L 60.21225 48.14156 
L 63.092031 47.244989 
L 64.77758 46.708065 
L 65.971812 46.363469 
L 68.851594 45.537065 
L 71.29304 44.810194 
L 71.731375 44.691831 
L 74.611156 43.945321 
L 77.490937 43.17219 
L 78.485067 42.912323 
L 80.370719 42.469186 
L 83.2505 41.804773 
L 86.130281 41.13043 
L 86.666099 41.014452 
L 89.010063 40.563113 
L 91.889844 40.036018 
L 94.769625 39.533724 
L 97.378576 39.116581 
L 97.649406 39.078549 
L 100.529188 38.775972 
L 103.408969 38.567208 
L 106.28875 38.499851 
L 109.168531 38.660521 
L 111.589028 39.116581 
L 112.048313 39.354187 
L 113.507611 41.014452 
L 112.886128 42.912323 
L 112.048313 43.801132 
L 111.172899 44.810194 
L 109.168531 46.393388 
L 108.80004 46.708065 
L 106.28875 48.335049 
L 105.900319 48.605935 
L 103.408969 50.002685 
L 102.5754 50.503806 
L 100.529188 51.530474 
L 98.904359 52.401677 
L 97.649406 52.978187 
L 94.949558 54.299548 
L 94.769625 54.376476 
L 91.889844 55.620821 
L 90.632789 56.197419 
L 89.010063 56.848775 
L 86.130281 58.079697 
L 86.093977 58.09529 
L 83.2505 59.165941 
L 81.198285 59.993161 
L 80.370719 60.289753 
L 77.490937 61.337622 
L 76.032136 61.891032 
L 74.611156 62.370961 
L 71.731375 63.372983 
L 70.565664 63.788903 
L 68.851594 64.334102 
L 65.971813 65.280733 
L 64.761001 65.686774 
L 63.092031 66.186359 
L 60.21225 67.069148 
L 58.575581 67.584645 
L 57.332469 67.934585 
L 54.452687 68.746095 
L 51.961531 69.482516 
L 51.572906 69.585321 
L 48.693125 70.319054 
L 45.813344 71.08841 
L 44.706769 71.380387 
L 42.933563 71.795136 
L 40.053781 72.463326 
L 37.174 73.155516 
L 37.174 73.278258 
L 37.174 74.978807 
z
" style="fill:#ecd3c5;fill-opacity:0.75;"/>
   </g>
   <g id="PathCollection_6">
    <path clip-path="url(#pb9c9a48531)" d="M 40.053781 72.463326 
L 42.933563 71.795136 
L 44.706769 71.380387 
L 45.813344 71.08841 
L 48.693125 70.319054 
L 51.572906 69.585321 
L 51.961531 69.482516 
L 54.452687 68.746095 
L 57.332469 67.934585 
L 58.575581 67.584645 
L 60.21225 67.069148 
L 63.092031 66.186359 
L 64.761001 65.686774 
L 65.971812 65.280733 
L 68.851594 64.334102 
L 70.565664 63.788903 
L 71.731375 63.372983 
L 74.611156 62.370961 
L 76.032136 61.891032 
L 77.490937 61.337622 
L 80.370719 60.289753 
L 81.198285 59.993161 
L 83.2505 59.165941 
L 86.093977 58.09529 
L 86.130281 58.079697 
L 89.010063 56.848775 
L 90.632789 56.197419 
L 91.889844 55.620821 
L 94.769625 54.376476 
L 94.949558 54.299548 
L 97.649406 52.978187 
L 98.904359 52.401677 
L 100.529188 51.530474 
L 102.5754 50.503806 
L 103.408969 50.002685 
L 105.900319 48.605935 
L 106.28875 48.335049 
L 108.80004 46.708065 
L 109.168531 46.393388 
L 111.172899 44.810194 
L 112.048313 43.801132 
L 112.886128 42.912323 
L 113.507611 41.014452 
L 112.048313 39.354187 
L 111.589028 39.116581 
L 109.168531 38.660521 
L 106.28875 38.499851 
L 103.408969 38.567208 
L 100.529188 38.775972 
L 97.649406 39.078549 
L 97.378576 39.116581 
L 94.769625 39.533724 
L 91.889844 40.036018 
L 89.010063 40.563113 
L 86.666099 41.014452 
L 86.130281 41.13043 
L 83.2505 41.804773 
L 80.370719 42.469186 
L 78.485067 42.912323 
L 77.490937 43.17219 
L 74.611156 43.945321 
L 71.731375 44.691831 
L 71.29304 44.810194 
L 68.851594 45.537065 
L 65.971812 46.363469 
L 64.77758 46.708065 
L 63.092031 47.244989 
L 60.21225 48.14156 
L 58.699562 48.605935 
L 57.332469 49.069846 
L 54.452687 50.026519 
L 52.985688 50.503806 
L 51.572906 51.012584 
L 48.693125 52.018913 
L 47.579308 52.401677 
L 45.813344 53.074358 
L 42.933563 54.119478 
L 42.436002 54.299548 
L 40.053781 55.256554 
L 37.558145 56.197419 
L 37.174 56.360366 
L 37.174 58.09529 
L 37.174 58.895664 
L 38.913057 58.09529 
L 40.053781 57.645687 
L 42.933563 56.451122 
L 43.525465 56.197419 
L 45.813344 55.35505 
L 48.456567 54.299548 
L 48.693125 54.21665 
L 51.572906 53.220213 
L 53.768846 52.401677 
L 54.452687 52.177494 
L 57.332469 51.237626 
L 59.451016 50.503806 
L 60.21225 50.271421 
L 63.092031 49.404191 
L 65.585208 48.605935 
L 65.971812 48.496623 
L 68.851594 47.717224 
L 71.731375 46.892095 
L 72.396296 46.708065 
L 74.611156 46.174412 
L 77.490937 45.480603 
L 80.201971 44.810194 
L 80.370719 44.773781 
L 83.2505 44.227725 
L 86.130281 43.703505 
L 89.010063 43.212673 
L 91.11238 42.912323 
L 91.889844 42.819537 
L 94.769625 42.617272 
L 97.649406 42.594244 
L 100.529188 42.897673 
L 100.586895 42.912323 
L 102.394307 44.810194 
L 101.328416 46.708065 
L 100.529188 47.356956 
L 99.13779 48.605935 
L 97.649406 49.547155 
L 96.270708 50.503806 
L 94.769625 51.305833 
L 92.888366 52.401677 
L 91.889844 52.873623 
L 89.107283 54.299548 
L 89.010063 54.341393 
L 86.130281 55.594058 
L 84.852127 56.197419 
L 83.2505 56.834356 
L 80.370719 58.073998 
L 80.321669 58.09529 
L 77.490937 59.133558 
L 75.343917 59.993161 
L 74.611156 60.246785 
L 71.731375 61.253097 
L 70.01183 61.891032 
L 68.851594 62.263932 
L 65.971812 63.2062 
L 64.27426 63.788903 
L 63.092031 64.141196 
L 60.21225 65.005286 
L 58.063113 65.686774 
L 57.332469 65.888311 
L 54.452687 66.662018 
L 51.572906 67.492432 
L 51.239284 67.584645 
L 48.693125 68.187354 
L 45.813344 68.888269 
L 43.440793 69.482516 
L 42.933563 69.591591 
L 40.053781 70.152775 
L 37.174 70.710709 
L 37.174 71.380387 
L 37.174 73.155516 
z
" style="fill:#f7b093;fill-opacity:0.75;"/>
   </g>
   <g id="PathCollection_7">
    <path clip-path="url(#pb9c9a48531)" d="M 40.053781 70.152775 
L 42.933563 69.591591 
L 43.440793 69.482516 
L 45.813344 68.888269 
L 48.693125 68.187354 
L 51.239284 67.584645 
L 51.572906 67.492432 
L 54.452687 66.662018 
L 57.332469 65.888311 
L 58.063113 65.686774 
L 60.21225 65.005286 
L 63.092031 64.141196 
L 64.27426 63.788903 
L 65.971812 63.2062 
L 68.851594 62.263932 
L 70.01183 61.891032 
L 71.731375 61.253097 
L 74.611156 60.246785 
L 75.343917 59.993161 
L 77.490937 59.133558 
L 80.321669 58.09529 
L 80.370719 58.073998 
L 83.2505 56.834356 
L 84.852127 56.197419 
L 86.130281 55.594058 
L 89.010063 54.341393 
L 89.107283 54.299548 
L 91.889844 52.873623 
L 92.888366 52.401677 
L 94.769625 51.305833 
L 96.270708 50.503806 
L 97.649406 49.547155 
L 99.13779 48.605935 
L 100.529188 47.356956 
L 101.328416 46.708065 
L 102.394307 44.810194 
L 100.586895 42.912323 
L 100.529188 42.897673 
L 97.649406 42.594244 
L 94.769625 42.617272 
L 91.889844 42.819537 
L 91.11238 42.912323 
L 89.010063 43.212673 
L 86.130281 43.703505 
L 83.2505 44.227725 
L 80.370719 44.773781 
L 80.201971 44.810194 
L 77.490937 45.480603 
L 74.611156 46.174412 
L 72.396296 46.708065 
L 71.731375 46.892095 
L 68.851594 47.717224 
L 65.971812 48.496623 
L 65.585208 48.605935 
L 63.092031 49.404191 
L 60.21225 50.271421 
L 59.451016 50.503806 
L 57.332469 51.237626 
L 54.452687 52.177494 
L 53.768846 52.401677 
L 51.572906 53.220213 
L 48.693125 54.21665 
L 48.456567 54.299548 
L 45.813344 55.35505 
L 43.525465 56.197419 
L 42.933563 56.451122 
L 40.053781 57.645687 
L 38.913057 58.09529 
L 37.174 58.895664 
L 37.174 59.993161 
L 37.174 61.891032 
L 37.174 63.788903 
L 37.174 65.528022 
L 37.390664 63.788903 
L 39.873727 61.891032 
L 40.053781 61.801985 
L 42.933563 60.235737 
L 43.314886 59.993161 
L 45.813344 58.909037 
L 47.426472 58.09529 
L 48.693125 57.609205 
L 51.572906 56.393925 
L 52.01588 56.197419 
L 54.452687 55.36771 
L 57.182381 54.299548 
L 57.332469 54.251799 
L 60.21225 53.382764 
L 63.036336 52.401677 
L 63.092031 52.385865 
L 65.971812 51.641347 
L 68.851594 50.827784 
L 70.022244 50.503806 
L 71.731375 50.132209 
L 74.611156 49.557816 
L 77.490937 49.004084 
L 79.923242 48.605935 
L 80.370719 48.55166 
L 83.2505 48.450246 
L 84.81362 48.605935 
L 85.99529 50.503806 
L 83.762266 52.401677 
L 83.2505 52.670571 
L 80.551651 54.299548 
L 80.370719 54.379226 
L 77.490937 55.69442 
L 76.53096 56.197419 
L 74.611156 56.93892 
L 72.001877 58.09529 
L 71.731375 58.190006 
L 68.851594 59.180099 
L 66.778879 59.993161 
L 65.971812 60.244734 
L 63.092031 61.136422 
L 60.906822 61.891032 
L 60.21225 62.082681 
L 57.332469 62.838165 
L 54.452688 63.686084 
L 54.07713 63.788903 
L 51.572906 64.312615 
L 48.693125 64.905718 
L 45.813344 65.507108 
L 44.706289 65.686774 
L 42.933563 65.892076 
L 40.053781 66.019486 
L 37.174 65.696591 
L 37.174 67.584645 
L 37.174 69.482516 
L 37.174 70.710709 
z
" style="fill:#eb7d62;fill-opacity:0.75;"/>
   </g>
   <g id="PathCollection_8">
    <path clip-path="url(#pb9c9a48531)" d="M 40.053781 66.019486 
L 42.933563 65.892076 
L 44.706289 65.686774 
L 45.813344 65.507108 
L 48.693125 64.905718 
L 51.572906 64.312615 
L 54.07713 63.788903 
L 54.452687 63.686084 
L 57.332469 62.838165 
L 60.21225 62.082681 
L 60.906822 61.891032 
L 63.092031 61.136422 
L 65.971812 60.244734 
L 66.778879 59.993161 
L 68.851594 59.180099 
L 71.731375 58.190006 
L 72.001877 58.09529 
L 74.611156 56.93892 
L 76.53096 56.197419 
L 77.490937 55.69442 
L 80.370719 54.379226 
L 80.551651 54.299548 
L 83.2505 52.670571 
L 83.762266 52.401677 
L 85.99529 50.503806 
L 84.81362 48.605935 
L 83.2505 48.450246 
L 80.370719 48.55166 
L 79.923242 48.605935 
L 77.490937 49.004084 
L 74.611156 49.557816 
L 71.731375 50.132209 
L 70.022244 50.503806 
L 68.851594 50.827784 
L 65.971812 51.641347 
L 63.092031 52.385865 
L 63.036336 52.401677 
L 60.21225 53.382764 
L 57.332469 54.251799 
L 57.182381 54.299548 
L 54.452687 55.36771 
L 52.01588 56.197419 
L 51.572906 56.393925 
L 48.693125 57.609205 
L 47.426472 58.09529 
L 45.813344 58.909037 
L 43.314886 59.993161 
L 42.933563 60.235737 
L 40.053781 61.801985 
L 39.873727 61.891032 
L 37.390664 63.788903 
L 37.174 65.528022 
L 37.174 65.686774 
L 37.174 65.696591 
z
" style="fill:#ca3b37;fill-opacity:0.75;"/>
   </g>
   <g id="matplotlib.axis_1">
    <g id="xtick_1">
     <g id="line2d_1">
      <defs>
       <path d="M 0 0 
L 0 1 
" id="m2ee8f28f9a" style="stroke:#000000;stroke-width:0.5;"/>
      </defs>
      <g>
       <use style="stroke:#000000;stroke-width:0.5;" x="60.21225" xlink:href="#m2ee8f28f9a" y="77.074"/>
      </g>
     </g>
    </g>
    <g id="xtick_2">
     <g id="line2d_2">
      <g>
       <use style="stroke:#000000;stroke-width:0.5;" x="106.28875" xlink:href="#m2ee8f28f9a" y="77.074"/>
      </g>
     </g>
    </g>
   </g>
   <g id="matplotlib.axis_2">
    <g id="ytick_1">
     <g id="line2d_3">
      <defs>
       <path d="M 0 0 
L -1 0 
" id="md3975e573a" style="stroke:#000000;stroke-width:0.5;"/>
      </defs>
      <g>
       <use style="stroke:#000000;stroke-width:0.5;" x="37.174" xlink:href="#md3975e573a" y="61.891032"/>
      </g>
     </g>
     <g id="text_1">
      <!-- 0.049 -->
      <g transform="translate(17.660875 64.038376)scale(0.06 -0.06)">
       <defs>
        <path d="M 4.15625 35.296875 
Q 4.15625 48 6.765625 55.734375 
Q 9.375 63.484375 14.515625 67.671875 
Q 19.671875 71.875 27.484375 71.875 
Q 33.25 71.875 37.59375 69.546875 
Q 41.9375 67.234375 44.765625 62.859375 
Q 47.609375 58.5 49.21875 52.21875 
Q 50.828125 45.953125 50.828125 35.296875 
Q 50.828125 22.703125 48.234375 14.96875 
Q 45.65625 7.234375 40.5 3 
Q 35.359375 -1.21875 27.484375 -1.21875 
Q 17.140625 -1.21875 11.234375 6.203125 
Q 4.15625 15.140625 4.15625 35.296875 
z
M 13.1875 35.296875 
Q 13.1875 17.671875 17.3125 11.828125 
Q 21.4375 6 27.484375 6 
Q 33.546875 6 37.671875 11.859375 
Q 41.796875 17.71875 41.796875 35.296875 
Q 41.796875 52.984375 37.671875 58.78125 
Q 33.546875 64.59375 27.390625 64.59375 
Q 21.34375 64.59375 17.71875 59.46875 
Q 13.1875 52.9375 13.1875 35.296875 
z
" id="ArialMT-48"/>
        <path d="M 9.078125 0 
L 9.078125 10.015625 
L 19.09375 10.015625 
L 19.09375 0 
z
" id="ArialMT-46"/>
        <path d="M 32.328125 0 
L 32.328125 17.140625 
L 1.265625 17.140625 
L 1.265625 25.203125 
L 33.9375 71.578125 
L 41.109375 71.578125 
L 41.109375 25.203125 
L 50.78125 25.203125 
L 50.78125 17.140625 
L 41.109375 17.140625 
L 41.109375 0 
z
M 32.328125 25.203125 
L 32.328125 57.46875 
L 9.90625 25.203125 
z
" id="ArialMT-52"/>
        <path d="M 5.46875 16.546875 
L 13.921875 17.328125 
Q 14.984375 11.375 18.015625 8.6875 
Q 21.046875 6 25.78125 6 
Q 29.828125 6 32.875 7.859375 
Q 35.9375 9.71875 37.890625 12.8125 
Q 39.84375 15.921875 41.15625 21.1875 
Q 42.484375 26.46875 42.484375 31.9375 
Q 42.484375 32.515625 42.4375 33.6875 
Q 39.796875 29.5 35.234375 26.875 
Q 30.671875 24.265625 25.34375 24.265625 
Q 16.453125 24.265625 10.296875 30.703125 
Q 4.15625 37.15625 4.15625 47.703125 
Q 4.15625 58.59375 10.578125 65.234375 
Q 17 71.875 26.65625 71.875 
Q 33.640625 71.875 39.421875 68.109375 
Q 45.21875 64.359375 48.21875 57.390625 
Q 51.21875 50.4375 51.21875 37.25 
Q 51.21875 23.53125 48.234375 15.40625 
Q 45.265625 7.28125 39.375 3.03125 
Q 33.5 -1.21875 25.59375 -1.21875 
Q 17.1875 -1.21875 11.859375 3.4375 
Q 6.546875 8.109375 5.46875 16.546875 
z
M 41.453125 48.140625 
Q 41.453125 55.71875 37.421875 60.15625 
Q 33.40625 64.59375 27.734375 64.59375 
Q 21.875 64.59375 17.53125 59.8125 
Q 13.1875 55.03125 13.1875 47.40625 
Q 13.1875 40.578125 17.3125 36.296875 
Q 21.4375 32.03125 27.484375 32.03125 
Q 33.59375 32.03125 37.515625 36.296875 
Q 41.453125 40.578125 41.453125 48.140625 
z
" id="ArialMT-57"/>
       </defs>
       <use xlink:href="#ArialMT-48"/>
       <use x="55.615234" xlink:href="#ArialMT-46"/>
       <use x="83.398438" xlink:href="#ArialMT-48"/>
       <use x="139.013672" xlink:href="#ArialMT-52"/>
       <use x="194.628906" xlink:href="#ArialMT-57"/>
      </g>
     </g>
    </g>
    <g id="ytick_2">
     <g id="line2d_4">
      <g>
       <use style="stroke:#000000;stroke-width:0.5;" x="37.174" xlink:href="#md3975e573a" y="31.525097"/>
      </g>
     </g>
     <g id="text_2">
      <!-- 0.051 -->
      <g transform="translate(17.660875 33.672441)scale(0.06 -0.06)">
       <defs>
        <path d="M 4.15625 18.75 
L 13.375 19.53125 
Q 14.40625 12.796875 18.140625 9.390625 
Q 21.875 6 27.15625 6 
Q 33.5 6 37.890625 10.78125 
Q 42.28125 15.578125 42.28125 23.484375 
Q 42.28125 31 38.0625 35.34375 
Q 33.84375 39.703125 27 39.703125 
Q 22.75 39.703125 19.328125 37.765625 
Q 15.921875 35.84375 13.96875 32.765625 
L 5.71875 33.84375 
L 12.640625 70.609375 
L 48.25 70.609375 
L 48.25 62.203125 
L 19.671875 62.203125 
L 15.828125 42.96875 
Q 22.265625 47.46875 29.34375 47.46875 
Q 38.71875 47.46875 45.15625 40.96875 
Q 51.609375 34.46875 51.609375 24.265625 
Q 51.609375 14.546875 45.953125 7.46875 
Q 39.0625 -1.21875 27.15625 -1.21875 
Q 17.390625 -1.21875 11.203125 4.25 
Q 5.03125 9.71875 4.15625 18.75 
z
" id="ArialMT-53"/>
        <path d="M 37.25 0 
L 28.46875 0 
L 28.46875 56 
Q 25.296875 52.984375 20.140625 49.953125 
Q 14.984375 46.921875 10.890625 45.40625 
L 10.890625 53.90625 
Q 18.265625 57.375 23.78125 62.296875 
Q 29.296875 67.234375 31.59375 71.875 
L 37.25 71.875 
z
" id="ArialMT-49"/>
       </defs>
       <use xlink:href="#ArialMT-48"/>
       <use x="55.615234" xlink:href="#ArialMT-46"/>
       <use x="83.398438" xlink:href="#ArialMT-48"/>
       <use x="139.013672" xlink:href="#ArialMT-53"/>
       <use x="194.628906" xlink:href="#ArialMT-49"/>
      </g>
     </g>
    </g>
    <g id="text_3">
     <!-- Aware, eq. (9) -->
     <g transform="translate(12.292828 68.009617)rotate(-90)scale(0.065 -0.065)">
      <defs>
       <path d="M -0.140625 0 
L 27.34375 71.578125 
L 37.546875 71.578125 
L 66.84375 0 
L 56.0625 0 
L 47.703125 21.6875 
L 17.78125 21.6875 
L 9.90625 0 
z
M 20.515625 29.390625 
L 44.78125 29.390625 
L 37.3125 49.21875 
Q 33.890625 58.25 32.234375 64.0625 
Q 30.859375 57.171875 28.375 50.390625 
z
" id="ArialMT-65"/>
       <path d="M 16.15625 0 
L 0.296875 51.859375 
L 9.375 51.859375 
L 17.625 21.921875 
L 20.703125 10.796875 
Q 20.90625 11.625 23.390625 21.484375 
L 31.640625 51.859375 
L 40.671875 51.859375 
L 48.4375 21.78125 
L 51.03125 11.859375 
L 54 21.875 
L 62.890625 51.859375 
L 71.4375 51.859375 
L 55.21875 0 
L 46.09375 0 
L 37.84375 31.0625 
L 35.84375 39.890625 
L 25.34375 0 
z
" id="ArialMT-119"/>
       <path d="M 40.4375 6.390625 
Q 35.546875 2.25 31.03125 0.53125 
Q 26.515625 -1.171875 21.34375 -1.171875 
Q 12.796875 -1.171875 8.203125 3 
Q 3.609375 7.171875 3.609375 13.671875 
Q 3.609375 17.484375 5.34375 20.625 
Q 7.078125 23.78125 9.890625 25.6875 
Q 12.703125 27.59375 16.21875 28.5625 
Q 18.796875 29.25 24.03125 29.890625 
Q 34.671875 31.15625 39.703125 32.90625 
Q 39.75 34.71875 39.75 35.203125 
Q 39.75 40.578125 37.25 42.78125 
Q 33.890625 45.75 27.25 45.75 
Q 21.046875 45.75 18.09375 43.578125 
Q 15.140625 41.40625 13.71875 35.890625 
L 5.125 37.0625 
Q 6.296875 42.578125 8.984375 45.96875 
Q 11.671875 49.359375 16.75 51.1875 
Q 21.828125 53.03125 28.515625 53.03125 
Q 35.15625 53.03125 39.296875 51.46875 
Q 43.453125 49.90625 45.40625 47.53125 
Q 47.359375 45.171875 48.140625 41.546875 
Q 48.578125 39.3125 48.578125 33.453125 
L 48.578125 21.734375 
Q 48.578125 9.46875 49.140625 6.21875 
Q 49.703125 2.984375 51.375 0 
L 42.1875 0 
Q 40.828125 2.734375 40.4375 6.390625 
z
M 39.703125 26.03125 
Q 34.90625 24.078125 25.34375 22.703125 
Q 19.921875 21.921875 17.671875 20.9375 
Q 15.4375 19.96875 14.203125 18.09375 
Q 12.984375 16.21875 12.984375 13.921875 
Q 12.984375 10.40625 15.640625 8.0625 
Q 18.3125 5.71875 23.4375 5.71875 
Q 28.515625 5.71875 32.46875 7.9375 
Q 36.421875 10.15625 38.28125 14.015625 
Q 39.703125 17 39.703125 22.796875 
z
" id="ArialMT-97"/>
       <path d="M 6.5 0 
L 6.5 51.859375 
L 14.40625 51.859375 
L 14.40625 44 
Q 17.4375 49.515625 20 51.265625 
Q 22.5625 53.03125 25.640625 53.03125 
Q 30.078125 53.03125 34.671875 50.203125 
L 31.640625 42.046875 
Q 28.421875 43.953125 25.203125 43.953125 
Q 22.3125 43.953125 20.015625 42.21875 
Q 17.71875 40.484375 16.75 37.40625 
Q 15.28125 32.71875 15.28125 27.15625 
L 15.28125 0 
z
" id="ArialMT-114"/>
       <path d="M 42.09375 16.703125 
L 51.171875 15.578125 
Q 49.03125 7.625 43.21875 3.21875 
Q 37.40625 -1.171875 28.375 -1.171875 
Q 17 -1.171875 10.328125 5.828125 
Q 3.65625 12.84375 3.65625 25.484375 
Q 3.65625 38.578125 10.390625 45.796875 
Q 17.140625 53.03125 27.875 53.03125 
Q 38.28125 53.03125 44.875 45.953125 
Q 51.46875 38.875 51.46875 26.03125 
Q 51.46875 25.25 51.421875 23.6875 
L 12.75 23.6875 
Q 13.234375 15.140625 17.578125 10.59375 
Q 21.921875 6.0625 28.421875 6.0625 
Q 33.25 6.0625 36.671875 8.59375 
Q 40.09375 11.140625 42.09375 16.703125 
z
M 13.234375 30.90625 
L 42.1875 30.90625 
Q 41.609375 37.453125 38.875 40.71875 
Q 34.671875 45.796875 27.984375 45.796875 
Q 21.921875 45.796875 17.796875 41.75 
Q 13.671875 37.703125 13.234375 30.90625 
z
" id="ArialMT-101"/>
       <path d="M 8.890625 0 
L 8.890625 10.015625 
L 18.890625 10.015625 
L 18.890625 0 
Q 18.890625 -5.515625 16.9375 -8.90625 
Q 14.984375 -12.3125 10.75 -14.15625 
L 8.296875 -10.40625 
Q 11.078125 -9.1875 12.390625 -6.8125 
Q 13.71875 -4.4375 13.875 0 
z
" id="ArialMT-44"/>
       <path id="ArialMT-32"/>
       <path d="M 39.65625 -19.875 
L 39.65625 5.515625 
Q 37.59375 2.640625 33.90625 0.734375 
Q 30.21875 -1.171875 26.078125 -1.171875 
Q 16.84375 -1.171875 10.171875 6.203125 
Q 3.515625 13.578125 3.515625 26.421875 
Q 3.515625 34.234375 6.21875 40.421875 
Q 8.9375 46.625 14.078125 49.828125 
Q 19.234375 53.03125 25.390625 53.03125 
Q 35.015625 53.03125 40.53125 44.921875 
L 40.53125 51.859375 
L 48.4375 51.859375 
L 48.4375 -19.875 
z
M 12.546875 26.078125 
Q 12.546875 16.0625 16.75 11.0625 
Q 20.953125 6.0625 26.8125 6.0625 
Q 32.421875 6.0625 36.46875 10.8125 
Q 40.53125 15.578125 40.53125 25.296875 
Q 40.53125 35.640625 36.25 40.859375 
Q 31.984375 46.09375 26.21875 46.09375 
Q 20.515625 46.09375 16.53125 41.234375 
Q 12.546875 36.375 12.546875 26.078125 
z
" id="ArialMT-113"/>
       <path d="M 23.390625 -21.046875 
Q 16.109375 -11.859375 11.078125 0.4375 
Q 6.0625 12.75 6.0625 25.921875 
Q 6.0625 37.546875 9.8125 48.1875 
Q 14.203125 60.546875 23.390625 72.796875 
L 29.6875 72.796875 
Q 23.78125 62.640625 21.875 58.296875 
Q 18.890625 51.5625 17.1875 44.234375 
Q 15.09375 35.109375 15.09375 25.875 
Q 15.09375 2.390625 29.6875 -21.046875 
z
" id="ArialMT-40"/>
       <path d="M 12.359375 -21.046875 
L 6.0625 -21.046875 
Q 20.65625 2.390625 20.65625 25.875 
Q 20.65625 35.0625 18.5625 44.09375 
Q 16.890625 51.421875 13.921875 58.15625 
Q 12.015625 62.546875 6.0625 72.796875 
L 12.359375 72.796875 
Q 21.53125 60.546875 25.921875 48.1875 
Q 29.6875 37.546875 29.6875 25.921875 
Q 29.6875 12.75 24.625 0.4375 
Q 19.578125 -11.859375 12.359375 -21.046875 
z
" id="ArialMT-41"/>
      </defs>
      <use xlink:href="#ArialMT-65"/>
      <use x="64.949219" xlink:href="#ArialMT-119"/>
      <use x="137.166016" xlink:href="#ArialMT-97"/>
      <use x="192.78125" xlink:href="#ArialMT-114"/>
      <use x="226.082031" xlink:href="#ArialMT-101"/>
      <use x="281.697266" xlink:href="#ArialMT-44"/>
      <use x="309.480469" xlink:href="#ArialMT-32"/>
      <use x="337.263672" xlink:href="#ArialMT-101"/>
      <use x="392.878906" xlink:href="#ArialMT-113"/>
      <use x="448.494141" xlink:href="#ArialMT-46"/>
      <use x="476.277344" xlink:href="#ArialMT-32"/>
      <use x="504.060547" xlink:href="#ArialMT-40"/>
      <use x="537.361328" xlink:href="#ArialMT-57"/>
      <use x="592.976562" xlink:href="#ArialMT-41"/>
     </g>
    </g>
   </g>
   <g id="line2d_5">
    <path clip-path="url(#pb9c9a48531)" d="M 83.2505 46.708065 
" style="fill:none;stroke:#000000;stroke-linecap:square;stroke-width:0.8;"/>
    <defs>
     <path d="M -2.5 2.5 
L 2.5 -2.5 
M -2.5 -2.5 
L 2.5 2.5 
" id="mbf42cbae38" style="stroke:#000000;stroke-width:1.5;"/>
    </defs>
    <g clip-path="url(#pb9c9a48531)">
     <use style="stroke:#000000;stroke-width:1.5;" x="83.2505" xlink:href="#mbf42cbae38" y="46.708065"/>
    </g>
   </g>
   <g id="patch_3">
    <path d="M 37.174 77.074 
L 37.174 18.24 
" style="fill:none;stroke:#000000;stroke-linecap:square;stroke-linejoin:miter;stroke-width:0.5;"/>
   </g>
   <g id="patch_4">
    <path d="M 129.327 77.074 
L 129.327 18.24 
" style="fill:none;stroke:#000000;stroke-linecap:square;stroke-linejoin:miter;stroke-width:0.5;"/>
   </g>
   <g id="patch_5">
    <path d="M 37.174 77.074 
L 129.327 77.074 
" style="fill:none;stroke:#000000;stroke-linecap:square;stroke-linejoin:miter;stroke-width:0.5;"/>
   </g>
   <g id="patch_6">
    <path d="M 37.174 18.24 
L 129.327 18.24 
" style="fill:none;stroke:#000000;stroke-linecap:square;stroke-linejoin:miter;stroke-width:0.5;"/>
   </g>
   <g id="text_4">
    <!-- Large steps -->
    <g transform="translate(66.268742 12.24)scale(0.065 -0.065)">
     <defs>
      <path d="M 7.328125 0 
L 7.328125 71.578125 
L 16.796875 71.578125 
L 16.796875 8.453125 
L 52.046875 8.453125 
L 52.046875 0 
z
" id="ArialMT-76"/>
      <path d="M 4.984375 -4.296875 
L 13.53125 -5.5625 
Q 14.0625 -9.515625 16.5 -11.328125 
Q 19.78125 -13.765625 25.4375 -13.765625 
Q 31.546875 -13.765625 34.859375 -11.328125 
Q 38.1875 -8.890625 39.359375 -4.5 
Q 40.046875 -1.8125 39.984375 6.78125 
Q 34.234375 0 25.640625 0 
Q 14.9375 0 9.078125 7.71875 
Q 3.21875 15.4375 3.21875 26.21875 
Q 3.21875 33.640625 5.90625 39.90625 
Q 8.59375 46.1875 13.6875 49.609375 
Q 18.796875 53.03125 25.6875 53.03125 
Q 34.859375 53.03125 40.828125 45.609375 
L 40.828125 51.859375 
L 48.921875 51.859375 
L 48.921875 7.03125 
Q 48.921875 -5.078125 46.453125 -10.125 
Q 44 -15.1875 38.640625 -18.109375 
Q 33.296875 -21.046875 25.484375 -21.046875 
Q 16.21875 -21.046875 10.5 -16.875 
Q 4.78125 -12.703125 4.984375 -4.296875 
z
M 12.25 26.859375 
Q 12.25 16.65625 16.296875 11.96875 
Q 20.359375 7.28125 26.46875 7.28125 
Q 32.515625 7.28125 36.609375 11.9375 
Q 40.71875 16.609375 40.71875 26.5625 
Q 40.71875 36.078125 36.5 40.90625 
Q 32.28125 45.75 26.3125 45.75 
Q 20.453125 45.75 16.34375 40.984375 
Q 12.25 36.234375 12.25 26.859375 
z
" id="ArialMT-103"/>
      <path d="M 3.078125 15.484375 
L 11.765625 16.84375 
Q 12.5 11.625 15.84375 8.84375 
Q 19.1875 6.0625 25.203125 6.0625 
Q 31.25 6.0625 34.171875 8.515625 
Q 37.109375 10.984375 37.109375 14.3125 
Q 37.109375 17.28125 34.515625 19 
Q 32.71875 20.171875 25.53125 21.96875 
Q 15.875 24.421875 12.140625 26.203125 
Q 8.40625 27.984375 6.46875 31.125 
Q 4.546875 34.28125 4.546875 38.09375 
Q 4.546875 41.546875 6.125 44.5 
Q 7.71875 47.46875 10.453125 49.421875 
Q 12.5 50.921875 16.03125 51.96875 
Q 19.578125 53.03125 23.640625 53.03125 
Q 29.734375 53.03125 34.34375 51.265625 
Q 38.96875 49.515625 41.15625 46.5 
Q 43.359375 43.5 44.1875 38.484375 
L 35.59375 37.3125 
Q 35.015625 41.3125 32.203125 43.546875 
Q 29.390625 45.796875 24.265625 45.796875 
Q 18.21875 45.796875 15.625 43.796875 
Q 13.03125 41.796875 13.03125 39.109375 
Q 13.03125 37.40625 14.109375 36.03125 
Q 15.1875 34.625 17.484375 33.6875 
Q 18.796875 33.203125 25.25 31.453125 
Q 34.578125 28.953125 38.25 27.359375 
Q 41.9375 25.78125 44.03125 22.75 
Q 46.140625 19.734375 46.140625 15.234375 
Q 46.140625 10.84375 43.578125 6.953125 
Q 41.015625 3.078125 36.171875 0.953125 
Q 31.34375 -1.171875 25.25 -1.171875 
Q 15.140625 -1.171875 9.84375 3.03125 
Q 4.546875 7.234375 3.078125 15.484375 
z
" id="ArialMT-115"/>
      <path d="M 25.78125 7.859375 
L 27.046875 0.09375 
Q 23.34375 -0.6875 20.40625 -0.6875 
Q 15.625 -0.6875 12.984375 0.828125 
Q 10.359375 2.34375 9.28125 4.8125 
Q 8.203125 7.28125 8.203125 15.1875 
L 8.203125 45.015625 
L 1.765625 45.015625 
L 1.765625 51.859375 
L 8.203125 51.859375 
L 8.203125 64.703125 
L 16.9375 69.96875 
L 16.9375 51.859375 
L 25.78125 51.859375 
L 25.78125 45.015625 
L 16.9375 45.015625 
L 16.9375 14.703125 
Q 16.9375 10.9375 17.40625 9.859375 
Q 17.875 8.796875 18.921875 8.15625 
Q 19.96875 7.515625 21.921875 7.515625 
Q 23.390625 7.515625 25.78125 7.859375 
z
" id="ArialMT-116"/>
      <path d="M 6.59375 -19.875 
L 6.59375 51.859375 
L 14.59375 51.859375 
L 14.59375 45.125 
Q 17.4375 49.078125 21 51.046875 
Q 24.5625 53.03125 29.640625 53.03125 
Q 36.28125 53.03125 41.359375 49.609375 
Q 46.4375 46.1875 49.015625 39.953125 
Q 51.609375 33.734375 51.609375 26.3125 
Q 51.609375 18.359375 48.75 11.984375 
Q 45.90625 5.609375 40.453125 2.21875 
Q 35.015625 -1.171875 29 -1.171875 
Q 24.609375 -1.171875 21.109375 0.6875 
Q 17.625 2.546875 15.375 5.375 
L 15.375 -19.875 
z
M 14.546875 25.640625 
Q 14.546875 15.625 18.59375 10.84375 
Q 22.65625 6.0625 28.421875 6.0625 
Q 34.28125 6.0625 38.453125 11.015625 
Q 42.625 15.96875 42.625 26.375 
Q 42.625 36.28125 38.546875 41.203125 
Q 34.46875 46.140625 28.8125 46.140625 
Q 23.1875 46.140625 18.859375 40.890625 
Q 14.546875 35.640625 14.546875 25.640625 
z
" id="ArialMT-112"/>
     </defs>
     <use xlink:href="#ArialMT-76"/>
     <use x="55.615234" xlink:href="#ArialMT-97"/>
     <use x="111.230469" xlink:href="#ArialMT-114"/>
     <use x="144.53125" xlink:href="#ArialMT-103"/>
     <use x="200.146484" xlink:href="#ArialMT-101"/>
     <use x="255.761719" xlink:href="#ArialMT-32"/>
     <use x="283.544922" xlink:href="#ArialMT-115"/>
     <use x="333.544922" xlink:href="#ArialMT-116"/>
     <use x="361.328125" xlink:href="#ArialMT-101"/>
     <use x="416.943359" xlink:href="#ArialMT-112"/>
     <use x="472.558594" xlink:href="#ArialMT-115"/>
    </g>
   </g>
  </g>
  <g id="axes_2">
   <g id="patch_7">
    <path d="M 137.887 77.074 
L 230.04 77.074 
L 230.04 18.24 
L 137.887 18.24 
z
" style="fill:#ffffff;"/>
   </g>
   <g id="PathCollection_9">
    <path clip-path="url(#pe738d247a8)" d="M 140.766781 77.074 
L 143.646562 77.074 
L 146.526344 77.074 
L 149.406125 77.074 
L 152.285906 77.074 
L 155.165687 77.074 
L 158.045469 77.074 
L 160.92525 77.074 
L 163.805031 77.074 
L 166.684812 77.074 
L 169.564594 77.074 
L 172.444375 77.074 
L 175.324156 77.074 
L 178.203937 77.074 
L 181.083719 77.074 
L 183.9635 77.074 
L 186.843281 77.074 
L 189.723062 77.074 
L 192.602844 77.074 
L 195.482625 77.074 
L 198.362406 77.074 
L 201.242188 77.074 
L 204.121969 77.074 
L 207.00175 77.074 
L 209.881531 77.074 
L 212.761313 77.074 
L 215.641094 77.074 
L 218.520875 77.074 
L 221.400656 77.074 
L 224.280438 77.074 
L 227.160219 77.074 
L 230.04 77.074 
L 230.04 75.176129 
L 230.04 73.278258 
L 230.04 71.380387 
L 230.04 69.482516 
L 230.04 67.584645 
L 230.04 65.686774 
L 230.04 63.788903 
L 230.04 61.891032 
L 230.04 59.993161 
L 230.04 58.09529 
L 230.04 56.197419 
L 230.04 54.299548 
L 230.04 52.401677 
L 230.04 50.503806 
L 230.04 48.605935 
L 230.04 46.708065 
L 230.04 44.810194 
L 230.04 42.912323 
L 230.04 41.014452 
L 230.04 39.116581 
L 230.04 37.21871 
L 230.04 35.320839 
L 230.04 33.422968 
L 230.04 31.525097 
L 230.04 29.627226 
L 230.04 27.729355 
L 230.04 25.831484 
L 230.04 23.933613 
L 230.04 22.035742 
L 230.04 20.137871 
L 230.04 18.24 
L 227.160219 18.24 
L 224.280438 18.24 
L 221.400656 18.24 
L 218.520875 18.24 
L 215.641094 18.24 
L 212.761313 18.24 
L 209.881531 18.24 
L 207.00175 18.24 
L 204.121969 18.24 
L 201.242188 18.24 
L 198.362406 18.24 
L 195.482625 18.24 
L 192.602844 18.24 
L 189.723062 18.24 
L 186.843281 18.24 
L 183.9635 18.24 
L 181.083719 18.24 
L 178.203937 18.24 
L 175.324156 18.24 
L 172.444375 18.24 
L 169.564594 18.24 
L 166.684812 18.24 
L 163.805031 18.24 
L 160.92525 18.24 
L 158.045469 18.24 
L 155.165687 18.24 
L 152.285906 18.24 
L 149.406125 18.24 
L 146.526344 18.24 
L 143.646562 18.24 
L 140.766781 18.24 
L 137.887 18.24 
L 137.887 20.137871 
L 137.887 22.035742 
L 137.887 23.933613 
L 137.887 25.831484 
L 137.887 27.729355 
L 137.887 29.627226 
L 137.887 31.525097 
L 137.887 33.422968 
L 137.887 35.320839 
L 137.887 37.21871 
L 137.887 39.116581 
L 137.887 41.014452 
L 137.887 42.912323 
L 137.887 44.810194 
L 137.887 46.708065 
L 137.887 48.605935 
L 137.887 50.503806 
L 137.887 52.401677 
L 137.887 54.299548 
L 137.887 56.197419 
L 137.887 58.09529 
L 137.887 59.993161 
L 137.887 61.891032 
L 137.887 63.788903 
L 137.887 65.686774 
L 137.887 67.584645 
L 137.887 69.482516 
L 137.887 71.380387 
L 137.887 73.278258 
L 137.887 75.176129 
L 137.887 77.074 
z
M 162.647882 54.299548 
L 163.221722 52.401677 
L 163.805031 52.017257 
L 165.200722 50.503806 
L 166.684812 49.525742 
L 167.97338 48.605935 
L 169.564594 47.557273 
L 171.189885 46.708065 
L 172.444375 45.881314 
L 175.324156 44.985223 
L 175.692795 44.810194 
L 178.203937 43.505939 
L 180.021549 42.912323 
L 181.083719 42.212318 
L 183.9635 41.563213 
L 186.152092 41.014452 
L 186.843281 40.558935 
L 189.723062 39.866588 
L 192.602844 39.75377 
L 195.482625 39.629283 
L 198.362406 40.261781 
L 199.389899 41.014452 
L 199.061064 42.912323 
L 198.362406 43.372761 
L 197.107122 44.810194 
L 195.482625 45.880791 
L 194.371278 46.708065 
L 192.602844 47.873521 
L 191.298893 48.605935 
L 189.723062 49.64446 
L 187.202676 50.503806 
L 186.843281 50.740659 
L 183.9635 51.871521 
L 182.494029 52.401677 
L 181.083719 53.331119 
L 178.203937 53.793891 
L 176.393369 54.299548 
L 175.324156 55.004195 
L 172.444375 55.508273 
L 169.564594 55.6204 
L 166.684812 55.855421 
L 163.805031 55.297018 
z
" style="fill:#506bda;fill-opacity:0.75;"/>
   </g>
   <g id="PathCollection_10">
    <path clip-path="url(#pe738d247a8)" d="M 163.805031 55.297018 
L 166.684812 55.855421 
L 169.564594 55.6204 
L 172.444375 55.508273 
L 175.324156 55.004195 
L 176.393369 54.299548 
L 178.203937 53.793891 
L 181.083719 53.331119 
L 182.494029 52.401677 
L 183.9635 51.871521 
L 186.843281 50.740659 
L 187.202676 50.503806 
L 189.723062 49.64446 
L 191.298893 48.605935 
L 192.602844 47.873521 
L 194.371278 46.708065 
L 195.482625 45.880791 
L 197.107122 44.810194 
L 198.362406 43.372761 
L 199.061064 42.912323 
L 199.389899 41.014452 
L 198.362406 40.261781 
L 195.482625 39.629283 
L 192.602844 39.75377 
L 189.723062 39.866588 
L 186.843281 40.558935 
L 186.152092 41.014452 
L 183.9635 41.563213 
L 181.083719 42.212318 
L 180.021549 42.912323 
L 178.203937 43.505939 
L 175.692795 44.810194 
L 175.324156 44.985223 
L 172.444375 45.881314 
L 171.189885 46.708065 
L 169.564594 47.557273 
L 167.97338 48.605935 
L 166.684812 49.525742 
L 165.200722 50.503806 
L 163.805031 52.017257 
L 163.221722 52.401677 
L 162.647882 54.299548 
z
M 164.650731 54.299548 
L 164.872712 52.401677 
L 166.596413 50.503806 
L 166.684812 50.445548 
L 169.261947 48.605935 
L 169.564594 48.406482 
L 172.444375 46.865945 
L 172.717789 46.708065 
L 175.324156 45.52788 
L 176.835712 44.810194 
L 178.203937 44.099555 
L 181.083719 43.145841 
L 181.722378 42.912323 
L 183.9635 42.111974 
L 186.843281 41.413231 
L 188.46539 41.014452 
L 189.723062 40.616595 
L 192.602844 40.390959 
L 195.482625 40.466286 
L 197.19687 41.014452 
L 197.37323 42.912323 
L 195.851837 44.810194 
L 195.482625 45.053517 
L 193.259931 46.708065 
L 192.602844 47.141107 
L 189.994943 48.605935 
L 189.723062 48.785114 
L 186.843281 50.022073 
L 185.830191 50.503806 
L 183.9635 51.341364 
L 181.083719 52.378386 
L 181.019076 52.401677 
L 178.203937 53.288234 
L 175.324156 54.055573 
L 174.310619 54.299548 
L 172.444375 54.819127 
L 169.564594 55.006608 
L 166.684812 54.985999 
z
" style="fill:#80a3fa;fill-opacity:0.75;"/>
   </g>
   <g id="PathCollection_11">
    <path clip-path="url(#pe738d247a8)" d="M 166.684812 54.985999 
L 169.564594 55.006608 
L 172.444375 54.819127 
L 174.310619 54.299548 
L 175.324156 54.055573 
L 178.203937 53.288234 
L 181.019076 52.401677 
L 181.083719 52.378386 
L 183.9635 51.341364 
L 185.830191 50.503806 
L 186.843281 50.022073 
L 189.723062 48.785114 
L 189.994943 48.605935 
L 192.602844 47.141107 
L 193.259931 46.708065 
L 195.482625 45.053517 
L 195.851837 44.810194 
L 197.37323 42.912323 
L 197.19687 41.014452 
L 195.482625 40.466286 
L 192.602844 40.390959 
L 189.723062 40.616595 
L 188.46539 41.014452 
L 186.843281 41.413231 
L 183.9635 42.111974 
L 181.722378 42.912323 
L 181.083719 43.145841 
L 178.203937 44.099555 
L 176.835712 44.810194 
L 175.324156 45.52788 
L 172.717789 46.708065 
L 172.444375 46.865945 
L 169.564594 48.406482 
L 169.261947 48.605935 
L 166.684812 50.445548 
L 166.596413 50.503806 
L 164.872712 52.401677 
L 164.650731 54.299548 
z
M 168.357122 54.299548 
L 166.684812 53.461478 
L 166.303923 52.401677 
L 166.684812 51.981754 
L 167.939868 50.503806 
L 169.564594 49.340188 
L 170.531216 48.605935 
L 172.444375 47.557966 
L 173.916214 46.708065 
L 175.324156 46.070537 
L 177.978628 44.810194 
L 178.203937 44.693171 
L 181.083719 43.707693 
L 183.259008 42.912323 
L 183.9635 42.660735 
L 186.843281 41.996084 
L 189.723062 41.387384 
L 192.602844 41.041311 
L 195.482625 42.031179 
L 195.917874 42.912323 
L 195.482625 43.477122 
L 194.506631 44.810194 
L 192.602844 46.273625 
L 192.066294 46.708065 
L 189.723062 48.022932 
L 188.737187 48.605935 
L 186.843281 49.460224 
L 184.648614 50.503806 
L 183.9635 50.811207 
L 181.083719 51.799849 
L 179.41343 52.401677 
L 178.203937 52.782576 
L 175.324156 53.459725 
L 172.444375 54.094557 
L 170.664054 54.299548 
L 169.564594 54.392816 
z
" style="fill:#b2ccfb;fill-opacity:0.75;"/>
   </g>
   <g id="PathCollection_12">
    <path clip-path="url(#pe738d247a8)" d="M 169.564594 54.392816 
L 170.664054 54.299548 
L 172.444375 54.094557 
L 175.324156 53.459725 
L 178.203937 52.782576 
L 179.41343 52.401677 
L 181.083719 51.799849 
L 183.9635 50.811207 
L 184.648614 50.503806 
L 186.843281 49.460224 
L 188.737187 48.605935 
L 189.723062 48.022932 
L 192.066294 46.708065 
L 192.602844 46.273625 
L 194.506631 44.810194 
L 195.482625 43.477122 
L 195.917874 42.912323 
L 195.482625 42.031179 
L 192.602844 41.041311 
L 189.723062 41.387384 
L 186.843281 41.996084 
L 183.9635 42.660735 
L 183.259008 42.912323 
L 181.083719 43.707693 
L 178.203938 44.693171 
L 177.978628 44.810194 
L 175.324156 46.070537 
L 173.916214 46.708065 
L 172.444375 47.557966 
L 170.531216 48.605935 
L 169.564594 49.340188 
L 167.939868 50.503806 
L 166.684812 51.981754 
L 166.303923 52.401677 
L 166.684812 53.461478 
L 168.357122 54.299548 
z
M 168.360768 52.401677 
L 169.27979 50.503806 
L 169.564594 50.299832 
L 171.79456 48.605935 
L 172.444375 48.249987 
L 175.114638 46.708065 
L 175.324156 46.613193 
L 178.203937 45.390212 
L 179.513802 44.810194 
L 181.083719 44.269545 
L 183.9635 43.321897 
L 185.364011 42.912323 
L 186.843281 42.578938 
L 189.723062 42.181653 
L 192.602844 42.290918 
L 193.798005 42.912323 
L 193.123955 44.810194 
L 192.602844 45.210769 
L 190.753623 46.708065 
L 189.723062 47.286348 
L 187.491599 48.605935 
L 186.843281 48.898374 
L 183.9635 50.181606 
L 183.234752 50.503806 
L 181.083719 51.221312 
L 178.203938 52.204553 
L 177.509008 52.401677 
L 175.324156 52.863877 
L 172.444375 53.261443 
L 169.564594 53.129168 
z
" style="fill:#dddcdc;fill-opacity:0.75;"/>
   </g>
   <g id="PathCollection_13">
    <path clip-path="url(#pe738d247a8)" d="M 169.564594 53.129168 
L 172.444375 53.261443 
L 175.324156 52.863877 
L 177.509008 52.401677 
L 178.203937 52.204553 
L 181.083719 51.221312 
L 183.234752 50.503806 
L 183.9635 50.181606 
L 186.843281 48.898374 
L 187.491599 48.605935 
L 189.723062 47.286348 
L 190.753623 46.708065 
L 192.602844 45.210769 
L 193.123955 44.810194 
L 193.798005 42.912323 
L 192.602844 42.290918 
L 189.723062 42.181653 
L 186.843281 42.578938 
L 185.364011 42.912323 
L 183.9635 43.321897 
L 181.083719 44.269545 
L 179.513802 44.810194 
L 178.203937 45.390212 
L 175.324156 46.613193 
L 175.114638 46.708065 
L 172.444375 48.249987 
L 171.79456 48.605935 
L 169.564594 50.299832 
L 169.27979 50.503806 
L 168.360768 52.401677 
z
M 172.261896 52.401677 
L 171.187484 50.503806 
L 172.444375 49.447269 
L 173.360395 48.605935 
L 175.324156 47.547202 
L 176.764913 46.708065 
L 178.203937 46.112647 
L 181.083719 44.85106 
L 181.191799 44.810194 
L 183.9635 44.07822 
L 186.843281 43.408614 
L 189.723062 43.112235 
L 191.225923 44.810194 
L 189.723062 46.252346 
L 189.285749 46.708065 
L 186.843281 48.064189 
L 185.943267 48.605935 
L 183.9635 49.414773 
L 181.500339 50.503806 
L 181.083719 50.642776 
L 178.203937 51.405588 
L 175.324156 52.112983 
L 172.803836 52.401677 
L 172.444375 52.428329 
z
" style="fill:#f6bfa6;fill-opacity:0.75;"/>
   </g>
   <g id="PathCollection_14">
    <path clip-path="url(#pe738d247a8)" d="M 172.444375 52.428329 
L 172.803836 52.401677 
L 175.324156 52.112983 
L 178.203937 51.405588 
L 181.083719 50.642776 
L 181.500339 50.503806 
L 183.9635 49.414773 
L 185.943267 48.605935 
L 186.843281 48.064189 
L 189.285749 46.708065 
L 189.723062 46.252346 
L 191.225923 44.810194 
L 189.723062 43.112235 
L 186.843281 43.408614 
L 183.9635 44.07822 
L 181.191799 44.810194 
L 181.083719 44.85106 
L 178.203938 46.112647 
L 176.764913 46.708065 
L 175.324156 47.547202 
L 173.360395 48.605935 
L 172.444375 49.447269 
L 171.187484 50.503806 
L 172.261896 52.401677 
z
M 174.198828 50.503806 
L 175.246609 48.605935 
L 175.324156 48.564127 
L 178.203937 47.046513 
L 178.772389 46.708065 
L 181.083719 45.933934 
L 183.9635 44.880094 
L 184.34829 44.810194 
L 186.843281 44.568139 
L 187.980456 44.810194 
L 187.250912 46.708065 
L 186.843281 46.934392 
L 184.066314 48.605935 
L 183.9635 48.64794 
L 181.083719 49.588906 
L 178.621043 50.503806 
L 178.203937 50.606623 
L 175.324156 50.825889 
z
" style="fill:#f08a6c;fill-opacity:0.75;"/>
   </g>
   <g id="PathCollection_15">
    <path clip-path="url(#pe738d247a8)" d="M 175.324156 50.825889 
L 178.203937 50.606623 
L 178.621043 50.503806 
L 181.083719 49.588906 
L 183.9635 48.64794 
L 184.066314 48.605935 
L 186.843281 46.934392 
L 187.250912 46.708065 
L 187.980456 44.810194 
L 186.843281 44.568139 
L 184.34829 44.810194 
L 183.9635 44.880094 
L 181.083719 45.933934 
L 178.772389 46.708065 
L 178.203937 47.046513 
L 175.324156 48.564127 
L 175.246609 48.605935 
L 174.198828 50.503806 
z
" style="fill:#cd423b;fill-opacity:0.75;"/>
   </g>
   <g id="matplotlib.axis_3">
    <g id="xtick_3">
     <g id="line2d_6">
      <g>
       <use style="stroke:#000000;stroke-width:0.5;" x="160.92525" xlink:href="#m2ee8f28f9a" y="77.074"/>
      </g>
     </g>
    </g>
    <g id="xtick_4">
     <g id="line2d_7">
      <g>
       <use style="stroke:#000000;stroke-width:0.5;" x="207.00175" xlink:href="#m2ee8f28f9a" y="77.074"/>
      </g>
     </g>
    </g>
   </g>
   <g id="matplotlib.axis_4">
    <g id="ytick_3">
     <g id="line2d_8">
      <g>
       <use style="stroke:#000000;stroke-width:0.5;" x="137.887" xlink:href="#md3975e573a" y="61.891032"/>
      </g>
     </g>
    </g>
    <g id="ytick_4">
     <g id="line2d_9">
      <g>
       <use style="stroke:#000000;stroke-width:0.5;" x="137.887" xlink:href="#md3975e573a" y="31.525097"/>
      </g>
     </g>
    </g>
   </g>
   <g id="line2d_10">
    <path clip-path="url(#pe738d247a8)" d="M 183.9635 46.708065 
" style="fill:none;stroke:#000000;stroke-linecap:square;stroke-width:0.8;"/>
    <g clip-path="url(#pe738d247a8)">
     <use style="stroke:#000000;stroke-width:1.5;" x="183.9635" xlink:href="#mbf42cbae38" y="46.708065"/>
    </g>
   </g>
   <g id="patch_8">
    <path d="M 137.887 77.074 
L 137.887 18.24 
" style="fill:none;stroke:#000000;stroke-linecap:square;stroke-linejoin:miter;stroke-width:0.5;"/>
   </g>
   <g id="patch_9">
    <path d="M 230.04 77.074 
L 230.04 18.24 
" style="fill:none;stroke:#000000;stroke-linecap:square;stroke-linejoin:miter;stroke-width:0.5;"/>
   </g>
   <g id="patch_10">
    <path d="M 137.887 77.074 
L 230.04 77.074 
" style="fill:none;stroke:#000000;stroke-linecap:square;stroke-linejoin:miter;stroke-width:0.5;"/>
   </g>
   <g id="patch_11">
    <path d="M 137.887 18.24 
L 230.04 18.24 
" style="fill:none;stroke:#000000;stroke-linecap:square;stroke-linejoin:miter;stroke-width:0.5;"/>
   </g>
   <g id="text_5">
    <!-- Small steps -->
    <g transform="translate(167.166586 12.24)scale(0.065 -0.065)">
     <defs>
      <path d="M 4.5 23 
L 13.421875 23.78125 
Q 14.0625 18.40625 16.375 14.96875 
Q 18.703125 11.53125 23.578125 9.40625 
Q 28.46875 7.28125 34.578125 7.28125 
Q 39.984375 7.28125 44.140625 8.890625 
Q 48.296875 10.5 50.3125 13.296875 
Q 52.34375 16.109375 52.34375 19.4375 
Q 52.34375 22.796875 50.390625 25.3125 
Q 48.4375 27.828125 43.953125 29.546875 
Q 41.0625 30.671875 31.203125 33.03125 
Q 21.34375 35.40625 17.390625 37.5 
Q 12.25 40.1875 9.734375 44.15625 
Q 7.234375 48.140625 7.234375 53.078125 
Q 7.234375 58.5 10.296875 63.203125 
Q 13.375 67.921875 19.28125 70.359375 
Q 25.203125 72.796875 32.421875 72.796875 
Q 40.375 72.796875 46.453125 70.234375 
Q 52.546875 67.671875 55.8125 62.6875 
Q 59.078125 57.71875 59.328125 51.421875 
L 50.25 50.734375 
Q 49.515625 57.515625 45.28125 60.984375 
Q 41.0625 64.453125 32.8125 64.453125 
Q 24.21875 64.453125 20.28125 61.296875 
Q 16.359375 58.15625 16.359375 53.71875 
Q 16.359375 49.859375 19.140625 47.359375 
Q 21.875 44.875 33.421875 42.265625 
Q 44.96875 39.65625 49.265625 37.703125 
Q 55.515625 34.8125 58.484375 30.390625 
Q 61.46875 25.984375 61.46875 20.21875 
Q 61.46875 14.5 58.203125 9.4375 
Q 54.9375 4.390625 48.796875 1.578125 
Q 42.671875 -1.21875 35.015625 -1.21875 
Q 25.296875 -1.21875 18.71875 1.609375 
Q 12.15625 4.4375 8.421875 10.125 
Q 4.6875 15.828125 4.5 23 
z
" id="ArialMT-83"/>
      <path d="M 6.59375 0 
L 6.59375 51.859375 
L 14.453125 51.859375 
L 14.453125 44.578125 
Q 16.890625 48.390625 20.9375 50.703125 
Q 25 53.03125 30.171875 53.03125 
Q 35.9375 53.03125 39.625 50.640625 
Q 43.3125 48.25 44.828125 43.953125 
Q 50.984375 53.03125 60.84375 53.03125 
Q 68.5625 53.03125 72.703125 48.75 
Q 76.859375 44.484375 76.859375 35.59375 
L 76.859375 0 
L 68.109375 0 
L 68.109375 32.671875 
Q 68.109375 37.9375 67.25 40.25 
Q 66.40625 42.578125 64.15625 43.984375 
Q 61.921875 45.40625 58.890625 45.40625 
Q 53.421875 45.40625 49.796875 41.765625 
Q 46.1875 38.140625 46.1875 30.125 
L 46.1875 0 
L 37.40625 0 
L 37.40625 33.6875 
Q 37.40625 39.546875 35.25 42.46875 
Q 33.109375 45.40625 28.21875 45.40625 
Q 24.515625 45.40625 21.359375 43.453125 
Q 18.21875 41.5 16.796875 37.734375 
Q 15.375 33.984375 15.375 26.90625 
L 15.375 0 
z
" id="ArialMT-109"/>
      <path d="M 6.390625 0 
L 6.390625 71.578125 
L 15.1875 71.578125 
L 15.1875 0 
z
" id="ArialMT-108"/>
     </defs>
     <use xlink:href="#ArialMT-83"/>
     <use x="66.699219" xlink:href="#ArialMT-109"/>
     <use x="150" xlink:href="#ArialMT-97"/>
     <use x="205.615234" xlink:href="#ArialMT-108"/>
     <use x="227.832031" xlink:href="#ArialMT-108"/>
     <use x="250.048828" xlink:href="#ArialMT-32"/>
     <use x="277.832031" xlink:href="#ArialMT-115"/>
     <use x="327.832031" xlink:href="#ArialMT-116"/>
     <use x="355.615234" xlink:href="#ArialMT-101"/>
     <use x="411.230469" xlink:href="#ArialMT-112"/>
     <use x="466.845703" xlink:href="#ArialMT-115"/>
    </g>
   </g>
  </g>
  <g id="axes_3">
   <g id="patch_12">
    <path d="M 37.174 144.468 
L 129.327 144.468 
L 129.327 85.634 
L 37.174 85.634 
z
" style="fill:#ffffff;"/>
   </g>
   <g id="PathCollection_16">
    <path clip-path="url(#pf224300bb4)" d="M 40.053781 144.468 
L 42.933563 144.468 
L 45.813344 144.468 
L 48.693125 144.468 
L 51.572906 144.468 
L 54.452687 144.468 
L 57.332469 144.468 
L 60.21225 144.468 
L 63.092031 144.468 
L 65.971812 144.468 
L 68.851594 144.468 
L 71.731375 144.468 
L 74.611156 144.468 
L 77.490937 144.468 
L 80.370719 144.468 
L 83.2505 144.468 
L 86.130281 144.468 
L 89.010063 144.468 
L 91.889844 144.468 
L 94.769625 144.468 
L 97.649406 144.468 
L 100.529188 144.468 
L 103.408969 144.468 
L 106.28875 144.468 
L 109.168531 144.468 
L 112.048313 144.468 
L 114.928094 144.468 
L 117.807875 144.468 
L 120.687656 144.468 
L 123.567437 144.468 
L 126.447219 144.468 
L 129.327 144.468 
L 129.327 142.570129 
L 129.327 140.672258 
L 129.327 138.774387 
L 129.327 136.876516 
L 129.327 134.978645 
L 129.327 133.080774 
L 129.327 131.182903 
L 129.327 129.285032 
L 129.327 127.387161 
L 129.327 125.48929 
L 129.327 123.591419 
L 129.327 121.693548 
L 129.327 119.795677 
L 129.327 117.897806 
L 129.327 115.999935 
L 129.327 114.102065 
L 129.327 112.204194 
L 129.327 110.306323 
L 129.327 108.408452 
L 129.327 106.510581 
L 129.327 104.61271 
L 129.327 102.714839 
L 129.327 100.816968 
L 129.327 98.919097 
L 129.327 97.021226 
L 129.327 95.123355 
L 129.327 93.225484 
L 129.327 91.327613 
L 129.327 89.429742 
L 129.327 87.531871 
L 129.327 85.634 
L 126.447219 85.634 
L 123.567437 85.634 
L 120.687656 85.634 
L 117.807875 85.634 
L 114.928094 85.634 
L 112.048313 85.634 
L 109.168531 85.634 
L 106.28875 85.634 
L 103.408969 85.634 
L 100.529188 85.634 
L 97.649406 85.634 
L 94.769625 85.634 
L 91.889844 85.634 
L 89.010063 85.634 
L 86.130281 85.634 
L 83.2505 85.634 
L 80.370719 85.634 
L 77.490937 85.634 
L 74.611156 85.634 
L 71.731375 85.634 
L 68.851594 85.634 
L 65.971812 85.634 
L 63.092031 85.634 
L 60.21225 85.634 
L 57.332469 85.634 
L 54.452687 85.634 
L 51.572906 85.634 
L 48.693125 85.634 
L 45.813344 85.634 
L 42.933563 85.634 
L 40.053781 85.634 
L 37.174 85.634 
L 37.174 87.531871 
L 37.174 89.429742 
L 37.174 91.327613 
L 37.174 93.225484 
L 37.174 95.123355 
L 37.174 97.021226 
L 37.174 98.919097 
L 37.174 100.816968 
L 37.174 102.714839 
L 37.174 104.61271 
L 37.174 106.510581 
L 37.174 108.408452 
L 37.174 110.306323 
L 37.174 112.204194 
L 37.174 114.102065 
L 37.174 115.999935 
L 37.174 117.897806 
L 37.174 119.795677 
L 37.174 121.693548 
L 37.174 123.591419 
L 37.174 125.48929 
L 37.174 127.387161 
L 37.174 129.285032 
L 37.174 131.182903 
L 37.174 133.080774 
L 37.174 134.978645 
L 37.174 136.876516 
L 37.174 138.774387 
L 37.174 140.672258 
L 37.174 142.570129 
L 37.174 144.468 
z
M 57.602797 125.48929 
L 57.891717 123.591419 
L 60.21225 122.062112 
L 60.751215 121.693548 
L 63.092031 120.150873 
L 65.031188 119.795677 
L 65.971812 119.175775 
L 68.851594 118.400929 
L 71.717211 119.795677 
L 71.049021 121.693548 
L 68.851594 123.141725 
L 67.981938 123.591419 
L 65.971812 124.916159 
L 63.092031 125.208443 
L 61.712807 125.48929 
L 60.21225 126.478207 
z
" style="fill:#4e68d8;fill-opacity:0.75;"/>
   </g>
   <g id="PathCollection_17">
    <path clip-path="url(#pf224300bb4)" d="M 60.21225 126.478207 
L 61.712807 125.48929 
L 63.092031 125.208443 
L 65.971812 124.916159 
L 67.981938 123.591419 
L 68.851594 123.141725 
L 71.049021 121.693548 
L 71.717211 119.795677 
L 68.851594 118.400929 
L 65.971812 119.175775 
L 65.031188 119.795677 
L 63.092031 120.150873 
L 60.751215 121.693548 
L 60.21225 122.062112 
L 57.891717 123.591419 
L 57.602797 125.48929 
z
M 60.001253 125.48929 
L 58.450966 123.591419 
L 60.21225 122.430675 
L 61.29018 121.693548 
L 63.092031 120.506069 
L 65.971812 119.963349 
L 66.620179 119.795677 
L 68.851594 118.904052 
L 70.683507 119.795677 
L 70.366666 121.693548 
L 68.851594 122.692031 
L 67.112283 123.591419 
L 65.971812 124.343027 
L 63.092031 124.927595 
L 60.333583 125.48929 
L 60.21225 125.569253 
z
" style="fill:#779af7;fill-opacity:0.75;"/>
   </g>
   <g id="PathCollection_18">
    <path clip-path="url(#pf224300bb4)" d="M 60.21225 125.569253 
L 60.333583 125.48929 
L 63.092031 124.927595 
L 65.971812 124.343027 
L 67.112283 123.591419 
L 68.851594 122.692031 
L 70.366666 121.693548 
L 70.683507 119.795677 
L 68.851594 118.904052 
L 66.620179 119.795677 
L 65.971812 119.963349 
L 63.092031 120.506069 
L 61.29018 121.693548 
L 60.21225 122.430675 
L 58.450966 123.591419 
L 60.001253 125.48929 
z
M 59.010214 123.591419 
L 60.21225 122.799238 
L 61.829145 121.693548 
L 63.092031 120.861265 
L 65.971812 120.288969 
L 67.879312 119.795677 
L 68.851594 119.407175 
L 69.649803 119.795677 
L 69.684312 121.693548 
L 68.851594 122.242337 
L 66.242627 123.591419 
L 65.971812 123.769895 
L 63.092031 124.646748 
L 60.21225 124.923893 
z
" style="fill:#a3c2fe;fill-opacity:0.75;"/>
   </g>
   <g id="PathCollection_19">
    <path clip-path="url(#pf224300bb4)" d="M 60.21225 124.923893 
L 63.092031 124.646748 
L 65.971812 123.769895 
L 66.242627 123.591419 
L 68.851594 122.242337 
L 69.684312 121.693548 
L 69.649803 119.795677 
L 68.851594 119.407175 
L 67.879312 119.795677 
L 65.971812 120.288969 
L 63.092031 120.861265 
L 61.829145 121.693548 
L 60.21225 122.799238 
L 59.010214 123.591419 
z
M 59.569463 123.591419 
L 60.21225 123.167801 
L 62.368111 121.693548 
L 63.092031 121.216461 
L 65.971812 120.614588 
L 68.851594 120.760402 
L 69.001957 121.693548 
L 68.851594 121.792643 
L 65.971813 123.264879 
L 65.396403 123.591419 
L 63.092031 124.3659 
L 60.21225 124.303958 
z
" style="fill:#ccd9ed;fill-opacity:0.75;"/>
   </g>
   <g id="PathCollection_20">
    <path clip-path="url(#pf224300bb4)" d="M 60.21225 124.303958 
L 63.092031 124.3659 
L 65.396403 123.591419 
L 65.971812 123.264879 
L 68.851594 121.792643 
L 69.001957 121.693548 
L 68.851594 120.760402 
L 65.971812 120.614588 
L 63.092031 121.216461 
L 62.368111 121.693548 
L 60.21225 123.167801 
L 59.569463 123.591419 
z
M 60.128711 123.591419 
L 60.21225 123.536365 
L 62.907076 121.693548 
L 63.092031 121.571657 
L 65.971812 120.940208 
L 68.125746 121.693548 
L 65.971812 122.790667 
L 64.560776 123.591419 
L 63.092031 124.085052 
L 60.21225 123.684023 
z
" style="fill:#ecd3c5;fill-opacity:0.75;"/>
   </g>
   <g id="PathCollection_21">
    <path clip-path="url(#pf224300bb4)" d="M 60.21225 123.684023 
L 63.092031 124.085052 
L 64.560776 123.591419 
L 65.971812 122.790667 
L 68.125746 121.693548 
L 65.971812 120.940208 
L 63.092031 121.571657 
L 62.907076 121.693548 
L 60.21225 123.536365 
L 60.128711 123.591419 
z
M 61.735376 123.591419 
L 63.092031 122.574845 
L 63.725148 123.591419 
L 63.092031 123.804205 
z
M 64.052008 121.693548 
L 65.971812 121.265827 
L 67.194743 121.693548 
L 65.971812 122.316455 
z
" style="fill:#f7b093;fill-opacity:0.75;"/>
   </g>
   <g id="PathCollection_22">
    <path clip-path="url(#pf224300bb4)" d="M 63.092031 123.804205 
L 63.725148 123.591419 
L 63.092031 122.574845 
L 61.735376 123.591419 
z
" style="fill:#eb7d62;fill-opacity:0.75;"/>
    <path clip-path="url(#pf224300bb4)" d="M 65.971812 122.316455 
L 67.194743 121.693548 
L 65.971812 121.265827 
L 64.052008 121.693548 
z
M 65.513534 121.693548 
L 65.971812 121.591447 
L 66.263739 121.693548 
L 65.971812 121.842243 
z
" style="fill:#eb7d62;fill-opacity:0.75;"/>
   </g>
   <g id="PathCollection_23">
    <path clip-path="url(#pf224300bb4)" d="M 65.971812 121.842243 
L 66.263739 121.693548 
L 65.971812 121.591447 
L 65.513534 121.693548 
z
" style="fill:#ca3b37;fill-opacity:0.75;"/>
   </g>
   <g id="matplotlib.axis_5">
    <g id="xtick_5">
     <g id="line2d_11">
      <g>
       <use style="stroke:#000000;stroke-width:0.5;" x="60.21225" xlink:href="#m2ee8f28f9a" y="144.468"/>
      </g>
     </g>
     <g id="text_6">
      <!-- 0.49 -->
      <g transform="translate(54.373969 153.262687)scale(0.06 -0.06)">
       <use xlink:href="#ArialMT-48"/>
       <use x="55.615234" xlink:href="#ArialMT-46"/>
       <use x="83.398438" xlink:href="#ArialMT-52"/>
       <use x="139.013672" xlink:href="#ArialMT-57"/>
      </g>
     </g>
    </g>
    <g id="xtick_6">
     <g id="line2d_12">
      <g>
       <use style="stroke:#000000;stroke-width:0.5;" x="106.28875" xlink:href="#m2ee8f28f9a" y="144.468"/>
      </g>
     </g>
     <g id="text_7">
      <!-- 0.51 -->
      <g transform="translate(100.450469 153.262687)scale(0.06 -0.06)">
       <use xlink:href="#ArialMT-48"/>
       <use x="55.615234" xlink:href="#ArialMT-46"/>
       <use x="83.398438" xlink:href="#ArialMT-53"/>
       <use x="139.013672" xlink:href="#ArialMT-49"/>
      </g>
     </g>
    </g>
   </g>
   <g id="matplotlib.axis_6">
    <g id="ytick_5">
     <g id="line2d_13">
      <g>
       <use style="stroke:#000000;stroke-width:0.5;" x="37.174" xlink:href="#md3975e573a" y="129.285032"/>
      </g>
     </g>
     <g id="text_8">
      <!-- 0.049 -->
      <g transform="translate(17.660875 131.432376)scale(0.06 -0.06)">
       <use xlink:href="#ArialMT-48"/>
       <use x="55.615234" xlink:href="#ArialMT-46"/>
       <use x="83.398438" xlink:href="#ArialMT-48"/>
       <use x="139.013672" xlink:href="#ArialMT-52"/>
       <use x="194.628906" xlink:href="#ArialMT-57"/>
      </g>
     </g>
    </g>
    <g id="ytick_6">
     <g id="line2d_14">
      <g>
       <use style="stroke:#000000;stroke-width:0.5;" x="37.174" xlink:href="#md3975e573a" y="98.919097"/>
      </g>
     </g>
     <g id="text_9">
      <!-- 0.051 -->
      <g transform="translate(17.660875 101.066441)scale(0.06 -0.06)">
       <use xlink:href="#ArialMT-48"/>
       <use x="55.615234" xlink:href="#ArialMT-46"/>
       <use x="83.398438" xlink:href="#ArialMT-48"/>
       <use x="139.013672" xlink:href="#ArialMT-53"/>
       <use x="194.628906" xlink:href="#ArialMT-49"/>
      </g>
     </g>
    </g>
    <g id="text_10">
     <!-- Unaware, eq. (6) -->
     <g transform="translate(12.292828 139.254359)rotate(-90)scale(0.065 -0.065)">
      <defs>
       <path d="M 54.6875 71.578125 
L 64.15625 71.578125 
L 64.15625 30.21875 
Q 64.15625 19.4375 61.71875 13.078125 
Q 59.28125 6.734375 52.90625 2.75 
Q 46.53125 -1.21875 36.1875 -1.21875 
Q 26.125 -1.21875 19.71875 2.25 
Q 13.328125 5.71875 10.59375 12.28125 
Q 7.859375 18.84375 7.859375 30.21875 
L 7.859375 71.578125 
L 17.328125 71.578125 
L 17.328125 30.28125 
Q 17.328125 20.953125 19.0625 16.53125 
Q 20.796875 12.109375 25.015625 9.71875 
Q 29.25 7.328125 35.359375 7.328125 
Q 45.796875 7.328125 50.234375 12.0625 
Q 54.6875 16.796875 54.6875 30.28125 
z
" id="ArialMT-85"/>
       <path d="M 6.59375 0 
L 6.59375 51.859375 
L 14.5 51.859375 
L 14.5 44.484375 
Q 20.21875 53.03125 31 53.03125 
Q 35.6875 53.03125 39.625 51.34375 
Q 43.5625 49.65625 45.515625 46.921875 
Q 47.46875 44.1875 48.25 40.4375 
Q 48.734375 37.984375 48.734375 31.890625 
L 48.734375 0 
L 39.9375 0 
L 39.9375 31.546875 
Q 39.9375 36.921875 38.90625 39.578125 
Q 37.890625 42.234375 35.28125 43.8125 
Q 32.671875 45.40625 29.15625 45.40625 
Q 23.53125 45.40625 19.453125 41.84375 
Q 15.375 38.28125 15.375 28.328125 
L 15.375 0 
z
" id="ArialMT-110"/>
       <path d="M 49.75 54.046875 
L 41.015625 53.375 
Q 39.84375 58.546875 37.703125 60.890625 
Q 34.125 64.65625 28.90625 64.65625 
Q 24.703125 64.65625 21.53125 62.3125 
Q 17.390625 59.28125 14.984375 53.46875 
Q 12.59375 47.65625 12.5 36.921875 
Q 15.671875 41.75 20.265625 44.09375 
Q 24.859375 46.4375 29.890625 46.4375 
Q 38.671875 46.4375 44.84375 39.96875 
Q 51.03125 33.5 51.03125 23.25 
Q 51.03125 16.5 48.125 10.71875 
Q 45.21875 4.9375 40.140625 1.859375 
Q 35.0625 -1.21875 28.609375 -1.21875 
Q 17.625 -1.21875 10.6875 6.859375 
Q 3.765625 14.9375 3.765625 33.5 
Q 3.765625 54.25 11.421875 63.671875 
Q 18.109375 71.875 29.4375 71.875 
Q 37.890625 71.875 43.28125 67.140625 
Q 48.6875 62.40625 49.75 54.046875 
z
M 13.875 23.1875 
Q 13.875 18.65625 15.796875 14.5 
Q 17.71875 10.359375 21.1875 8.171875 
Q 24.65625 6 28.46875 6 
Q 34.03125 6 38.03125 10.484375 
Q 42.046875 14.984375 42.046875 22.703125 
Q 42.046875 30.125 38.078125 34.390625 
Q 34.125 38.671875 28.125 38.671875 
Q 22.171875 38.671875 18.015625 34.390625 
Q 13.875 30.125 13.875 23.1875 
z
" id="ArialMT-54"/>
      </defs>
      <use xlink:href="#ArialMT-85"/>
      <use x="72.216797" xlink:href="#ArialMT-110"/>
      <use x="127.832031" xlink:href="#ArialMT-97"/>
      <use x="183.447266" xlink:href="#ArialMT-119"/>
      <use x="255.664062" xlink:href="#ArialMT-97"/>
      <use x="311.279297" xlink:href="#ArialMT-114"/>
      <use x="344.580078" xlink:href="#ArialMT-101"/>
      <use x="400.195312" xlink:href="#ArialMT-44"/>
      <use x="427.978516" xlink:href="#ArialMT-32"/>
      <use x="455.761719" xlink:href="#ArialMT-101"/>
      <use x="511.376953" xlink:href="#ArialMT-113"/>
      <use x="566.992188" xlink:href="#ArialMT-46"/>
      <use x="594.775391" xlink:href="#ArialMT-32"/>
      <use x="622.558594" xlink:href="#ArialMT-40"/>
      <use x="655.859375" xlink:href="#ArialMT-54"/>
      <use x="711.474609" xlink:href="#ArialMT-41"/>
     </g>
    </g>
   </g>
   <g id="line2d_15">
    <path clip-path="url(#pf224300bb4)" d="M 83.2505 114.102065 
" style="fill:none;stroke:#000000;stroke-linecap:square;stroke-width:0.8;"/>
    <g clip-path="url(#pf224300bb4)">
     <use style="stroke:#000000;stroke-width:1.5;" x="83.2505" xlink:href="#mbf42cbae38" y="114.102065"/>
    </g>
   </g>
   <g id="patch_13">
    <path d="M 37.174 144.468 
L 37.174 85.634 
" style="fill:none;stroke:#000000;stroke-linecap:square;stroke-linejoin:miter;stroke-width:0.5;"/>
   </g>
   <g id="patch_14">
    <path d="M 129.327 144.468 
L 129.327 85.634 
" style="fill:none;stroke:#000000;stroke-linecap:square;stroke-linejoin:miter;stroke-width:0.5;"/>
   </g>
   <g id="patch_15">
    <path d="M 37.174 144.468 
L 129.327 144.468 
" style="fill:none;stroke:#000000;stroke-linecap:square;stroke-linejoin:miter;stroke-width:0.5;"/>
   </g>
   <g id="patch_16">
    <path d="M 37.174 85.634 
L 129.327 85.634 
" style="fill:none;stroke:#000000;stroke-linecap:square;stroke-linejoin:miter;stroke-width:0.5;"/>
   </g>
  </g>
  <g id="axes_4">
   <g id="patch_17">
    <path d="M 137.887 144.468 
L 230.04 144.468 
L 230.04 85.634 
L 137.887 85.634 
z
" style="fill:#ffffff;"/>
   </g>
   <g id="PathCollection_24">
    <path clip-path="url(#p6d134a69a3)" d="M 140.766781 144.468 
L 143.646562 144.468 
L 146.526344 144.468 
L 149.406125 144.468 
L 152.285906 144.468 
L 155.165687 144.468 
L 158.045469 144.468 
L 160.92525 144.468 
L 163.805031 144.468 
L 166.684812 144.468 
L 169.564594 144.468 
L 172.444375 144.468 
L 175.324156 144.468 
L 178.203937 144.468 
L 181.083719 144.468 
L 183.9635 144.468 
L 186.843281 144.468 
L 189.723062 144.468 
L 192.602844 144.468 
L 195.482625 144.468 
L 198.362406 144.468 
L 201.242188 144.468 
L 204.121969 144.468 
L 207.00175 144.468 
L 209.881531 144.468 
L 212.761313 144.468 
L 215.641094 144.468 
L 218.520875 144.468 
L 221.400656 144.468 
L 224.280438 144.468 
L 227.160219 144.468 
L 230.04 144.468 
L 230.04 142.570129 
L 230.04 140.672258 
L 230.04 138.774387 
L 230.04 136.876516 
L 230.04 134.978645 
L 230.04 133.080774 
L 230.04 131.182903 
L 230.04 129.285032 
L 230.04 127.387161 
L 230.04 125.48929 
L 230.04 123.591419 
L 230.04 121.693548 
L 230.04 119.795677 
L 230.04 117.897806 
L 230.04 115.999935 
L 230.04 114.102065 
L 230.04 112.204194 
L 230.04 110.306323 
L 230.04 108.408452 
L 230.04 106.510581 
L 230.04 104.61271 
L 230.04 102.714839 
L 230.04 100.816968 
L 230.04 98.919097 
L 230.04 97.021226 
L 230.04 95.123355 
L 230.04 93.225484 
L 230.04 91.327613 
L 230.04 89.429742 
L 230.04 87.531871 
L 230.04 85.634 
L 227.160219 85.634 
L 224.280438 85.634 
L 221.400656 85.634 
L 218.520875 85.634 
L 215.641094 85.634 
L 212.761313 85.634 
L 209.881531 85.634 
L 207.00175 85.634 
L 204.121969 85.634 
L 201.242188 85.634 
L 198.362406 85.634 
L 195.482625 85.634 
L 192.602844 85.634 
L 189.723062 85.634 
L 186.843281 85.634 
L 183.9635 85.634 
L 181.083719 85.634 
L 178.203937 85.634 
L 175.324156 85.634 
L 172.444375 85.634 
L 169.564594 85.634 
L 166.684812 85.634 
L 163.805031 85.634 
L 160.92525 85.634 
L 158.045469 85.634 
L 155.165687 85.634 
L 152.285906 85.634 
L 149.406125 85.634 
L 146.526344 85.634 
L 143.646562 85.634 
L 140.766781 85.634 
L 137.887 85.634 
L 137.887 87.531871 
L 137.887 89.429742 
L 137.887 91.327613 
L 137.887 93.225484 
L 137.887 95.123355 
L 137.887 97.021226 
L 137.887 98.919097 
L 137.887 100.816968 
L 137.887 102.714839 
L 137.887 104.61271 
L 137.887 106.510581 
L 137.887 108.408452 
L 137.887 110.306323 
L 137.887 112.204194 
L 137.887 114.102065 
L 137.887 115.999935 
L 137.887 117.897806 
L 137.887 119.795677 
L 137.887 121.693548 
L 137.887 123.591419 
L 137.887 125.48929 
L 137.887 127.387161 
L 137.887 129.285032 
L 137.887 131.182903 
L 137.887 133.080774 
L 137.887 134.978645 
L 137.887 136.876516 
L 137.887 138.774387 
L 137.887 140.672258 
L 137.887 142.570129 
L 137.887 144.468 
z
M 167.534217 121.693548 
L 166.684812 120.745952 
L 166.143179 119.795677 
L 166.684812 119.438723 
L 167.757867 117.897806 
L 169.564594 116.561107 
L 170.232036 115.999935 
L 172.444375 114.632615 
L 173.283036 114.102065 
L 175.324156 112.794947 
L 176.578574 112.204194 
L 178.203937 111.133025 
L 181.083719 110.504303 
L 181.60595 110.306323 
L 183.9635 109.079682 
L 186.843281 108.725311 
L 188.238795 108.408452 
L 189.723062 107.661309 
L 192.602844 107.516734 
L 195.482625 108.245897 
L 195.729281 108.408452 
L 196.505126 110.306323 
L 195.482625 111.009227 
L 194.567908 112.204194 
L 192.602844 113.81693 
L 192.261331 114.102065 
L 189.723062 115.641156 
L 189.143022 115.999935 
L 186.843281 117.346414 
L 185.646861 117.897806 
L 183.9635 119.007197 
L 181.083719 119.572748 
L 180.466667 119.795677 
L 178.203937 120.992938 
L 175.324156 121.233151 
L 173.200665 121.693548 
L 172.444375 122.160319 
L 169.564594 122.368695 
z
" style="fill:#506bda;fill-opacity:0.75;"/>
   </g>
   <g id="PathCollection_25">
    <path clip-path="url(#p6d134a69a3)" d="M 169.564594 122.368695 
L 172.444375 122.160319 
L 173.200665 121.693548 
L 175.324156 121.233151 
L 178.203937 120.992938 
L 180.466667 119.795677 
L 181.083719 119.572748 
L 183.9635 119.007197 
L 185.646861 117.897806 
L 186.843281 117.346414 
L 189.143022 115.999935 
L 189.723062 115.641156 
L 192.261331 114.102065 
L 192.602844 113.81693 
L 194.567908 112.204194 
L 195.482625 111.009227 
L 196.505126 110.306323 
L 195.729281 108.408452 
L 195.482625 108.245897 
L 192.602844 107.516734 
L 189.723062 107.661309 
L 188.238795 108.408452 
L 186.843281 108.725311 
L 183.9635 109.079682 
L 181.60595 110.306323 
L 181.083719 110.504303 
L 178.203937 111.133025 
L 176.578574 112.204194 
L 175.324156 112.794947 
L 173.283036 114.102065 
L 172.444375 114.632615 
L 170.232036 115.999935 
L 169.564594 116.561107 
L 167.757867 117.897806 
L 166.684812 119.438723 
L 166.143179 119.795677 
L 166.684812 120.745952 
L 167.534217 121.693548 
z
M 167.860361 119.795677 
L 168.830922 117.897806 
L 169.564594 117.355003 
L 171.176274 115.999935 
L 172.444375 115.216195 
L 174.205522 114.102065 
L 175.324156 113.3857 
L 177.832991 112.204194 
L 178.203937 111.959728 
L 181.083719 110.993376 
L 182.896026 110.306323 
L 183.9635 109.750913 
L 186.843281 109.244365 
L 189.723062 108.664998 
L 192.602844 108.549715 
L 194.78814 110.306323 
L 193.59058 112.204194 
L 192.602844 113.014832 
L 191.300642 114.102065 
L 189.723062 115.058637 
L 188.201262 115.999935 
L 186.843281 116.795022 
L 184.45044 117.897806 
L 183.9635 118.218716 
L 181.083719 119.094375 
L 179.142568 119.795677 
L 178.203937 120.292328 
L 175.324156 120.730418 
L 172.444375 121.213839 
L 169.564594 121.149326 
z
" style="fill:#80a3fa;fill-opacity:0.75;"/>
   </g>
   <g id="PathCollection_26">
    <path clip-path="url(#p6d134a69a3)" d="M 169.564594 121.149326 
L 172.444375 121.213839 
L 175.324156 120.730418 
L 178.203937 120.292328 
L 179.142568 119.795677 
L 181.083719 119.094375 
L 183.9635 118.218716 
L 184.45044 117.897806 
L 186.843281 116.795022 
L 188.201262 115.999935 
L 189.723062 115.058637 
L 191.300642 114.102065 
L 192.602844 113.014832 
L 193.59058 112.204194 
L 194.78814 110.306323 
L 192.602844 108.549715 
L 189.723062 108.664998 
L 186.843281 109.244365 
L 183.9635 109.750913 
L 182.896026 110.306323 
L 181.083719 110.993376 
L 178.203938 111.959728 
L 177.832991 112.204194 
L 175.324156 113.3857 
L 174.205522 114.102065 
L 172.444375 115.216195 
L 171.176274 115.999935 
L 169.564594 117.355003 
L 168.830922 117.897806 
L 167.860361 119.795677 
z
M 169.390327 119.795677 
L 169.564594 119.293161 
L 170.026922 117.897806 
L 172.120512 115.999935 
L 172.444375 115.799774 
L 175.128008 114.102065 
L 175.324156 113.976453 
L 178.203937 112.644482 
L 179.13429 112.204194 
L 181.083719 111.482449 
L 183.9635 110.422589 
L 184.371303 110.306323 
L 186.843281 109.763419 
L 189.723062 109.396479 
L 192.602844 109.791749 
L 193.242996 110.306323 
L 192.613251 112.204194 
L 192.602844 112.212735 
L 190.339952 114.102065 
L 189.723062 114.476118 
L 187.259503 115.999935 
L 186.843281 116.24363 
L 183.9635 117.529765 
L 183.148102 117.897806 
L 181.083719 118.616003 
L 178.203937 119.602529 
L 177.475212 119.795677 
L 175.324156 120.227686 
L 172.444375 120.501934 
L 169.564594 119.934095 
z
" style="fill:#b2ccfb;fill-opacity:0.75;"/>
   </g>
   <g id="PathCollection_27">
    <path clip-path="url(#p6d134a69a3)" d="M 169.564594 119.934095 
L 172.444375 120.501934 
L 175.324156 120.227686 
L 177.475212 119.795677 
L 178.203937 119.602529 
L 181.083719 118.616003 
L 183.148102 117.897806 
L 183.9635 117.529765 
L 186.843281 116.24363 
L 187.259503 115.999935 
L 189.723062 114.476118 
L 190.339952 114.102065 
L 192.602844 112.212735 
L 192.613251 112.204194 
L 193.242996 110.306323 
L 192.602844 109.791749 
L 189.723062 109.396479 
L 186.843281 109.763419 
L 184.371303 110.306323 
L 183.9635 110.422589 
L 181.083719 111.482449 
L 179.13429 112.204194 
L 178.203937 112.644482 
L 175.324156 113.976453 
L 175.128008 114.102065 
L 172.444375 115.799774 
L 172.120512 115.999935 
L 170.026922 117.897806 
L 169.564594 119.293161 
L 169.390327 119.795677 
z
M 171.488701 117.897806 
L 172.444375 116.951214 
L 173.367804 115.999935 
L 175.324156 114.787757 
L 176.394253 114.102065 
L 178.203937 113.269637 
L 180.455274 112.204194 
L 181.083719 111.971522 
L 183.9635 111.096399 
L 186.73469 110.306323 
L 186.843281 110.282474 
L 189.723062 110.12796 
L 190.569556 110.306323 
L 191.109349 112.204194 
L 189.723062 113.56987 
L 189.197455 114.102065 
L 186.843281 115.509826 
L 186.048885 115.999935 
L 183.9635 116.909123 
L 181.773068 117.897806 
L 181.083719 118.13763 
L 178.203938 118.939055 
L 175.324156 119.643859 
L 172.444375 119.772916 
z
" style="fill:#dddcdc;fill-opacity:0.75;"/>
   </g>
   <g id="PathCollection_28">
    <path clip-path="url(#p6d134a69a3)" d="M 172.444375 119.772916 
L 175.324156 119.643859 
L 178.203937 118.939055 
L 181.083719 118.13763 
L 181.773068 117.897806 
L 183.9635 116.909123 
L 186.048885 115.999935 
L 186.843281 115.509826 
L 189.197455 114.102065 
L 189.723062 113.56987 
L 191.109349 112.204194 
L 190.569556 110.306323 
L 189.723062 110.12796 
L 186.843281 110.282474 
L 186.73469 110.306323 
L 183.9635 111.096399 
L 181.083719 111.971522 
L 180.455274 112.204194 
L 178.203937 113.269637 
L 176.394253 114.102065 
L 175.324156 114.787757 
L 173.367804 115.999935 
L 172.444375 116.951214 
L 171.488701 117.897806 
z
M 173.478488 117.897806 
L 174.773302 115.999935 
L 175.324156 115.65862 
L 177.753329 114.102065 
L 178.203937 113.894791 
L 181.083719 112.710531 
L 182.375947 112.204194 
L 183.9635 111.770209 
L 186.843281 111.342216 
L 189.454446 112.204194 
L 187.728735 114.102065 
L 186.843281 114.631553 
L 184.625333 115.999935 
L 183.9635 116.288482 
L 181.083719 117.414545 
L 179.73917 117.897806 
L 178.203937 118.275581 
L 175.324156 118.564674 
z
" style="fill:#f6bfa6;fill-opacity:0.75;"/>
   </g>
   <g id="PathCollection_29">
    <path clip-path="url(#p6d134a69a3)" d="M 175.324156 118.564674 
L 178.203937 118.275581 
L 179.73917 117.897806 
L 181.083719 117.414545 
L 183.9635 116.288482 
L 184.625333 115.999935 
L 186.843281 114.631553 
L 187.728735 114.102065 
L 189.454446 112.204194 
L 186.843281 111.342216 
L 183.9635 111.770209 
L 182.375947 112.204194 
L 181.083719 112.710531 
L 178.203937 113.894791 
L 177.753329 114.102065 
L 175.324156 115.65862 
L 174.773302 115.999935 
L 173.478488 117.897806 
z
M 177.00601 115.999935 
L 178.203937 115.25373 
L 179.939346 114.102065 
L 181.083719 113.676344 
L 183.9635 112.963674 
L 185.614392 114.102065 
L 183.9635 115.049593 
L 182.414506 115.999935 
L 181.083719 116.445439 
L 178.203937 116.951615 
z
" style="fill:#f08a6c;fill-opacity:0.75;"/>
   </g>
   <g id="PathCollection_30">
    <path clip-path="url(#p6d134a69a3)" d="M 178.203937 116.951615 
L 181.083719 116.445439 
L 182.414506 115.999935 
L 183.9635 115.049593 
L 185.614392 114.102065 
L 183.9635 112.963674 
L 181.083719 113.676344 
L 179.939346 114.102065 
L 178.203937 115.25373 
L 177.00601 115.999935 
z
" style="fill:#cd423b;fill-opacity:0.75;"/>
   </g>
   <g id="matplotlib.axis_7">
    <g id="xtick_7">
     <g id="line2d_16">
      <g>
       <use style="stroke:#000000;stroke-width:0.5;" x="160.92525" xlink:href="#m2ee8f28f9a" y="144.468"/>
      </g>
     </g>
     <g id="text_11">
      <!-- 0.49 -->
      <g transform="translate(155.086969 153.262687)scale(0.06 -0.06)">
       <use xlink:href="#ArialMT-48"/>
       <use x="55.615234" xlink:href="#ArialMT-46"/>
       <use x="83.398438" xlink:href="#ArialMT-52"/>
       <use x="139.013672" xlink:href="#ArialMT-57"/>
      </g>
     </g>
    </g>
    <g id="xtick_8">
     <g id="line2d_17">
      <g>
       <use style="stroke:#000000;stroke-width:0.5;" x="207.00175" xlink:href="#m2ee8f28f9a" y="144.468"/>
      </g>
     </g>
     <g id="text_12">
      <!-- 0.51 -->
      <g transform="translate(201.163469 153.262687)scale(0.06 -0.06)">
       <use xlink:href="#ArialMT-48"/>
       <use x="55.615234" xlink:href="#ArialMT-46"/>
       <use x="83.398438" xlink:href="#ArialMT-53"/>
       <use x="139.013672" xlink:href="#ArialMT-49"/>
      </g>
     </g>
    </g>
   </g>
   <g id="matplotlib.axis_8">
    <g id="ytick_7">
     <g id="line2d_18">
      <g>
       <use style="stroke:#000000;stroke-width:0.5;" x="137.887" xlink:href="#md3975e573a" y="129.285032"/>
      </g>
     </g>
    </g>
    <g id="ytick_8">
     <g id="line2d_19">
      <g>
       <use style="stroke:#000000;stroke-width:0.5;" x="137.887" xlink:href="#md3975e573a" y="98.919097"/>
      </g>
     </g>
    </g>
   </g>
   <g id="line2d_20">
    <path clip-path="url(#p6d134a69a3)" d="M 183.9635 114.102065 
" style="fill:none;stroke:#000000;stroke-linecap:square;stroke-width:0.8;"/>
    <g clip-path="url(#p6d134a69a3)">
     <use style="stroke:#000000;stroke-width:1.5;" x="183.9635" xlink:href="#mbf42cbae38" y="114.102065"/>
    </g>
   </g>
   <g id="patch_18">
    <path d="M 137.887 144.468 
L 137.887 85.634 
" style="fill:none;stroke:#000000;stroke-linecap:square;stroke-linejoin:miter;stroke-width:0.5;"/>
   </g>
   <g id="patch_19">
    <path d="M 230.04 144.468 
L 230.04 85.634 
" style="fill:none;stroke:#000000;stroke-linecap:square;stroke-linejoin:miter;stroke-width:0.5;"/>
   </g>
   <g id="patch_20">
    <path d="M 137.887 144.468 
L 230.04 144.468 
" style="fill:none;stroke:#000000;stroke-linecap:square;stroke-linejoin:miter;stroke-width:0.5;"/>
   </g>
   <g id="patch_21">
    <path d="M 137.887 85.634 
L 230.04 85.634 
" style="fill:none;stroke:#000000;stroke-linecap:square;stroke-linejoin:miter;stroke-width:0.5;"/>
   </g>
  </g>
 </g>
 <defs>
  <clipPath id="pb9c9a48531">
   <rect height="58.834" width="92.153" x="37.174" y="18.24"/>
  </clipPath>
  <clipPath id="pe738d247a8">
   <rect height="58.834" width="92.153" x="137.887" y="18.24"/>
  </clipPath>
  <clipPath id="pf224300bb4">
   <rect height="58.834" width="92.153" x="37.174" y="85.634"/>
  </clipPath>
  <clipPath id="p6d134a69a3">
   <rect height="58.834" width="92.153" x="137.887" y="85.634"/>
  </clipPath>
 </defs>
</svg>
